<svg width="410" height="271" viewBox="0 0 410 271" fill="none" xmlns="http://www.w3.org/2000/svg">
<path d="M409.696 256.378H403.257L396.041 171.461H402.448L409.696 256.378Z" fill="#03DAC5"/>
<path d="M305.897 256.378H299.458L309.1 171.461H315.571L305.897 256.378Z" fill="#03DAC5"/>
<path d="M399.245 240.222H394.262L387.014 174.305H391.997L399.245 240.222Z" fill="#03DAC5"/>
<path d="M314.924 240.222H309.909L319.583 174.305H324.566L314.924 240.222Z" fill="#03DAC5"/>
<path d="M396.786 137.727C396.786 141.928 393.55 145.321 389.538 145.321H317.124C313.112 145.321 309.877 141.928 309.877 137.727V92.1022C309.294 82.3762 317.351 72.6502 326.767 74.3628H382.29C392.191 75.2029 396.786 85.3813 396.786 89.5819V137.727Z" fill="#03DAC5"/>
<path d="M398.727 160.443H310.783C310.783 160.443 293.892 170.589 301.917 175.662C309.974 180.735 349.416 182.415 352.619 182.415C352.975 182.415 353.719 182.157 354.755 181.672C355.79 182.124 356.534 182.415 356.89 182.415C360.126 182.415 399.536 180.735 407.593 175.662C415.649 170.589 398.727 160.443 398.727 160.443Z" fill="#03DAC5"/>
<path d="M376.66 129.681C378.116 132.234 381.869 136.338 385.461 150.555C387.273 157.793 387.014 168.456 376.304 173.82L341.036 170.977L351.551 130.392L376.66 129.681Z" fill="#0D3B7F"/>
<path d="M375.948 136.079L374.071 135.53C373.974 135.078 373.91 134.593 373.813 134.173C373.813 134.173 370.383 133.72 365.626 133.139L333.658 124.221C332.202 126.773 317.513 143.834 319.163 158.633C319.875 165.031 328.902 173.82 328.902 173.82L360.967 170.976L362.294 167.874C362.359 167.874 363.459 170.266 363.459 170.266C363.459 170.266 368.636 164.999 372.907 158.342C376.175 153.269 375.269 144.836 374.622 139.149L375.948 136.079Z" fill="#001C49"/>
<path d="M370.253 21.4677C373.165 28.3179 378.051 64.7338 379.346 67.7388C380.64 70.7439 350.387 71.6163 350.387 71.6163L347.798 30.9351L370.253 21.4677Z" fill="#441800"/>
<path d="M330.002 22.1785C328.546 26.2175 324.469 70.5823 324.469 70.5823L355.628 68.1265L340.065 16.3946L330.002 22.1785Z" fill="#210500"/>
<path d="M352.554 69.7744L341.812 60.2423C341.812 60.2423 343.754 46.1865 343.754 44.3447L351.778 43.9569H351.843H351.875L359.899 44.3447C359.899 46.1865 363.653 62.5688 363.653 62.5688L352.554 69.7744Z" fill="#E8C8BA"/>
<path d="M351.681 43.6338H351.746H351.81L359.802 44.0538C359.802 44.6678 360.061 46.6711 360.385 49.1268C358.379 51.9057 348.542 61.1793 344.66 61.1793C341.424 61.1793 343.851 62.2133 341.812 60.1776C342.233 57.1726 343.689 44.7324 343.689 44.0215L351.681 43.6338Z" fill="url(#paint0_linear_254_2092)"/>
<path d="M334.467 31.8402C335.988 43.0526 345.598 52.5847 351.293 52.5847C357.667 52.5847 365.853 46.4454 368.28 32.131C370.286 20.3694 367.115 8.67234 351.584 8.67234C337.023 8.64003 332.882 20.0786 334.467 31.8402Z" fill="#E8C8BA"/>
<path d="M334.467 31.8075C333.367 20.0458 336.991 8.70424 351.519 8.63962V52.5197C351.454 52.5197 351.357 52.552 351.292 52.552C345.598 52.552 335.826 46.5742 334.467 31.8075Z" fill="#DDAC9E"/>
<path d="M347.377 15.6514C342.589 19.8843 338.771 22.1785 336.926 29.578C336.117 32.8739 333.497 40.3057 333.238 42.6322C332.785 46.8328 328.417 35.2327 328.417 35.2327C328.417 35.2327 327.252 15.2637 339.321 7.89649C344.627 4.63295 347.442 6.44243 347.733 7.08868C347.992 7.73492 347.377 15.6514 347.377 15.6514Z" fill="#210500"/>
<path d="M344.918 16.9761C348.478 20.692 362.585 20.4982 365.238 29.9333C365.982 32.5506 369.736 43.5045 367.762 47.5758C365.206 52.9397 372.583 40.9841 372.583 40.9841C372.583 40.9841 374.363 22.7277 365.982 11.8062C357.829 1.20773 345.501 5.37601 345.468 6.31307C345.468 7.02394 344.918 16.9761 344.918 16.9761Z" fill="#441800"/>
<path d="M363.847 57.1727C364.397 56.7526 366.338 61.7934 371.224 62.0195C373.586 62.1165 363.944 99.3079 352.49 103.315C335.6 109.26 333.011 66.8987 332.494 64.5076C331.976 62.1488 342.362 58.0451 342.362 56.8496C350.484 63.6352 357.311 62.278 363.847 57.1727Z" fill="white"/>
<path d="M341.392 55.6863C328.579 64.5076 322.851 63.7644 317.998 66.7694C313.145 69.7422 314.309 84.4443 314.309 84.4443C314.309 84.4443 323.11 94.2995 323.919 96.5614C324.534 98.2416 328.902 108.775 328.676 118.275C328.514 125.158 322.851 130.005 320.004 143.899C319.681 145.385 353.137 136.79 353.137 136.79L352.781 100.148C352.781 100.148 345.145 75.2353 341.1 59.6284L341.392 55.6863Z" fill="#7AA7D6"/>
<path d="M363.006 57.108C375.236 62.7303 381.093 63.312 385.946 66.317C390.8 69.2897 395.685 101.44 395.685 101.44C395.685 101.44 385.17 104.349 382.128 107.612C381.546 108.258 378.569 93.7178 378.439 94.0732C377.825 95.7535 374.524 107.224 377.016 122.54C378.116 129.294 384.846 132.137 384.846 143.188C384.846 144.286 349.934 136.435 349.934 136.435L351.357 102.991C351.357 102.991 360.514 77.9171 364.559 62.3103L363.006 57.108Z" fill="#AAC9E2"/>
<path d="M364.429 56.5911C364.429 56.3003 369.736 59.6931 369.736 59.6931L372.454 68.2881L365.109 67.8035L370.027 73.1673L351.39 102.959C351.39 102.959 360.708 66.7695 362.65 62.8597C364.526 58.9176 364.429 56.5911 364.429 56.5911Z" fill="#7AA7D6"/>
<path d="M360.514 64.5398L344.595 85.7044L338.9 62.9242L347.281 61.5025L354.755 60.7916L360.514 64.5398Z" fill="url(#paint1_linear_254_2092)"/>
<path d="M351.907 61.5026L360.32 67.9974L364.915 56.3326L362.585 54.0385L351.907 61.5026Z" fill="white"/>
<path d="M339.385 55.5893C339.385 55.2985 332.655 60.9855 332.655 60.9855L332.332 68.1265L337.897 67.4802L334.273 71.5193L352.781 101.57C352.781 101.57 345.436 71.7455 343.818 67.7064C341.65 62.278 339.385 55.5893 339.385 55.5893Z" fill="#AAC9E2"/>
<path d="M341.036 53.683C341.036 53.683 347.604 57.7543 352.425 61.5026C349.578 64.1522 342.848 68.3851 342.848 68.3851L338.771 55.9772L341.036 53.683Z" fill="white"/>
<path d="M340.388 143.608C336.829 147.13 338.285 170.879 341.747 191.01C343.85 203.418 347.668 222.482 348.251 228.815C349.125 238.832 348.348 248.623 350.969 261.483C352.716 270.143 354.56 267.17 360.029 257.347C362.132 253.567 362.423 250.529 362.876 247.718C363.491 243.808 363.653 240.48 362.747 237.701C361.646 234.276 359.932 232.208 360.579 225.907C362.099 210.817 365.044 207.231 365.626 186.939C366.176 165.677 354.884 129.294 340.388 143.608Z" fill="#DDAC9E"/>
<path d="M349.739 257.056C348.542 264.876 347.863 268.721 349.545 270.627C350.742 272.017 362.067 269.626 364.105 261.645C366.144 253.696 360.643 254.213 364.235 243C365.044 240.48 359.187 230.657 361.129 234.341C365.011 241.772 362.682 251.919 360.352 255.764C355.402 264.036 349.739 257.056 349.739 257.056Z" fill="black"/>
<path d="M345.727 138.373C360.19 133.591 358.281 147.259 363.394 153.851C381.513 177.31 380.316 217.409 390.541 233.598C399.827 248.3 398.436 250.917 394.812 251.402C390.088 252.048 384.231 247.136 380.025 239.672C378.148 236.344 376.627 233.921 375.624 228.815C372.421 212.368 346.827 186.002 345.436 171.073C344.045 156.145 342.718 161.283 340.13 151.492C337.476 141.669 345.727 138.373 345.727 138.373Z" fill="#E8C8BA"/>
<path d="M376.336 230.172C378.763 239.769 383.39 246.167 386.723 246.587C390.023 247.007 394.715 247.88 395.459 242.063C402.221 253.405 400.798 256.313 397.433 256.442C394.003 256.572 385.105 256.119 383.972 251.789C382.84 247.459 381.254 240.868 378.278 237.96C375.236 235.052 376.336 230.172 376.336 230.172Z" fill="black"/>
<path d="M351.646 86.8794L346.258 137.845L377.503 141.139L382.891 90.1738L351.646 86.8794Z" fill="#A80000"/>
<path d="M382.808 112.814C380.316 112.879 372.389 114.301 370.933 113.558C369.477 112.814 365.109 111.005 363.458 110.811C361.841 110.617 355.628 110.779 354.722 111.328C353.784 111.877 353.913 112.459 355.208 112.879C356.47 113.299 360.708 113.073 359.964 113.493C359.252 113.913 350.289 114.882 348.801 115.173C346.31 115.69 347.539 116.627 347.539 116.627L355.402 115.755C355.402 115.755 348.251 117.273 347.216 117.661C346.213 118.049 345.565 118.824 346.989 118.921C348.801 119.018 355.369 119.018 355.369 119.018C355.369 119.018 347.96 119.309 347.119 119.568C346.277 119.826 346.018 120.699 348.833 120.989C351.357 121.248 356.211 121.022 356.211 121.022L349.319 121.862C349.319 121.862 349.286 123.542 354.496 123.057C359.673 122.508 368.215 120.763 369.412 120.279C370.642 119.794 381.352 119.697 384.943 119.438C388.502 119.115 382.808 112.814 382.808 112.814Z" fill="#E8C8BA"/>
<path d="M375.56 110.003L369.477 112.233L370.836 124.673L377.048 123.09L375.56 110.003Z" fill="white"/>
<path d="M391.641 82.8609C396.85 96.4643 400.895 113.654 398.953 117.92C397.594 120.86 382.969 128.13 375.333 128.55C376.239 125.707 371.353 110.294 372.874 109.971C378.569 108.808 383.325 106.223 384.943 105.383C388.794 103.411 390.897 80.8898 391.641 82.8609Z" fill="#AAC9E2"/>
<path d="M317.319 129.52C317.61 129.746 337.735 135.885 338.124 136.047C341.1 137.178 343.171 137.469 345.695 137.113C349.125 136.629 352.296 136.338 355.661 137.243C358.993 138.115 359.641 138.018 359.932 137.501C360.255 136.855 358.12 136.338 356.308 135.465C354.496 134.593 350.451 134.27 351.196 134.044C351.907 133.817 359.252 135.853 360.385 136.015C361.517 136.176 364.17 136.015 363.006 135.239C361.841 134.496 354.819 132.04 353.816 131.652C352.846 131.265 362.585 134.076 363.264 134.108C364.138 134.173 364.041 133.268 362.52 132.59C361.485 132.105 355.014 129.875 354.302 129.681C353.978 129.584 356.502 129.843 357.408 130.037C358.993 130.425 359.576 130.586 360.482 130.78C362.1 131.2 363.523 130.651 361.453 129.811C359.544 129.035 358.476 128.227 357.699 128.098C356.923 127.969 354.722 127.678 352.457 127.775C351.616 127.807 346.439 128.68 344.174 128.454C336.279 127.678 320.457 119.212 319.519 119.342L317.319 129.52Z" fill="#DDAC9E"/>
<path d="M328.028 140.118L335.308 142.186L341.489 128.324L334.014 125.449L328.028 140.118Z" fill="white"/>
<path d="M315.377 73.4257C306.058 117.984 306.544 117.241 307.547 124.447C309.1 135.465 329.646 145.321 329.646 145.321L337.476 126.095C337.476 126.095 323.531 120.925 323.466 118.986C323.24 112.588 329.808 95.1719 330.002 94.4287C330.52 92.4253 315.377 73.4257 315.377 73.4257Z" fill="#7AA7D6"/>
<path d="M110.27 256.378H103.799L96.5837 171.461H103.023L110.27 256.378Z" fill="#03DAC5"/>
<path d="M6.43891 256.378H0L9.67454 171.461H16.0811L6.43891 256.378Z" fill="#03DAC5"/>
<path d="M99.787 240.222H94.8041L87.5563 174.305H92.5392L99.787 240.222Z" fill="#03DAC5"/>
<path d="M15.4663 240.222H10.4835L20.1256 174.305H25.1085L15.4663 240.222Z" fill="#03DAC5"/>
<path d="M97.3278 137.727C97.3278 141.928 94.0921 145.321 90.08 145.321H17.6665C13.6543 145.321 10.4187 141.928 10.4187 137.727V92.1023C9.83628 82.3763 17.893 72.6503 27.3087 74.3306H82.8321C92.7332 75.1707 97.3278 85.3491 97.3278 89.5496V137.727Z" fill="#03DAC5"/>
<path d="M99.2691 160.443H11.3246C11.3246 160.443 -5.56536 170.589 2.45901 175.662C10.5157 180.735 49.9257 182.415 53.1614 182.415C53.5173 182.415 57.0765 182.415 57.4324 182.415C60.668 182.415 100.078 180.735 108.135 175.662C116.191 170.589 99.2691 160.443 99.2691 160.443Z" fill="#03DAC5"/>
<path d="M51.8027 94.558L39.2808 62.9566C39.2808 62.9566 45.2667 59.8869 45.3638 59.2084C45.8168 55.9125 46.7551 45.8957 46.7551 44.3447L55.1677 43.957H55.2324H55.2648L63.6774 44.0539C63.6774 45.6372 65.1982 57.9805 66.0071 61.5026C66.1365 62.1165 72.1548 62.4073 72.1548 62.4073L59.8918 99.7603L51.8027 94.558Z" fill="#E8C8BA"/>
<path d="M55.0707 43.6339H55.1354H55.2001L63.1921 44.0539C63.1921 44.6678 63.451 46.6712 63.7745 49.1269C61.7685 51.9058 51.9321 61.1794 48.0494 61.1794C44.8137 61.1794 47.2405 62.2134 45.202 60.1777C45.6227 57.1727 47.0787 44.7325 47.0787 44.0216L55.0707 43.6339Z" fill="url(#paint2_linear_254_2092)"/>
<path d="M37.857 31.84C39.3778 43.0523 48.9876 52.5845 54.65 52.5845C61.0242 52.5845 69.2103 46.4451 71.637 32.1308C73.6755 20.3368 70.5369 8.63977 55.0059 8.63977C40.4132 8.63977 36.2716 20.0783 37.857 31.84Z" fill="#E8C8BA"/>
<path d="M37.8569 31.8077C36.7568 20.046 40.3807 8.7044 54.9087 8.63977V52.5198C54.844 52.5198 54.7469 52.5521 54.6822 52.5521C48.9875 52.5521 39.2159 46.5744 37.8569 31.8077Z" fill="#DDAC9E"/>
<path d="M52.4499 14.5204C40.5751 18.301 42.1605 22.1461 40.3162 29.5457C39.5073 32.8415 39.475 36.9452 40.4133 40.9196C41.1251 43.9892 35.1716 33.3262 35.1716 33.3262C35.1716 33.3262 29.0886 8.47806 44.199 5.31145C50.3143 4.05128 53.2264 4.27746 52.2881 6.73319C52.0292 7.44406 52.4499 14.5204 52.4499 14.5204Z" fill="#B57A52"/>
<path d="M45.849 13.5188C49.6347 19.4643 66.5247 18.0102 68.822 27.51C70.4722 34.3926 69.6633 39.4333 67.6895 43.5369C65.1334 48.9008 71.9606 33.8109 71.9606 33.8109C71.9606 33.8109 78.2053 20.5306 69.825 9.60905C61.6713 -0.989376 46.5932 4.85914 46.5285 5.82851C46.5285 6.53938 45.849 13.5188 45.849 13.5188Z" fill="#D1956D"/>
<path d="M44.6194 56.8819C32.4857 66.4786 30.7385 64.5076 25.8851 67.5126C21.0316 70.4854 20.1903 76.4631 20.1903 76.4631C20.1903 76.4631 26.4998 94.3318 27.3087 96.5614C27.9235 98.2416 33.5859 104.866 33.3594 114.365C33.1976 121.248 24.1055 130.037 31.0944 137.016C32.1945 138.115 56.5265 136.79 56.5265 136.79L57.9502 96.9168C57.9502 96.9168 51.8995 79.4682 45.3636 66.0586L44.6194 56.8819Z" fill="#7AA7D6"/>
<path d="M66.3952 57.1081C80.4055 67.3834 83.2852 64.96 88.1386 67.965C92.9921 70.9378 99.0751 101.408 99.0751 101.408C99.0751 101.408 91.1801 100.988 88.1386 104.252C87.5562 104.898 81.9909 93.6856 81.8291 94.041C81.2144 95.7213 75.7785 106.384 80.9879 116.821C84.0617 122.961 89.174 128.324 85.3883 134.981C84.8383 135.918 54.7469 136.176 54.7469 136.176L55.0058 86.48C55.0058 86.48 60.7005 74.7506 67.9483 62.2781L66.3952 57.1081Z" fill="#AAC9E2"/>
<path d="M35.8832 128.227C31.6121 131.071 24.4937 143.899 23.0701 151.718C21.6464 159.538 30.9003 169.522 33.7476 169.522C36.595 169.522 57.9825 160.281 57.9825 160.281L60.3769 123.51C60.3445 123.51 44.4252 122.54 35.8832 128.227Z" fill="#001C49"/>
<path d="M46.3344 125.158C53.2263 121.603 78.6583 123.251 82.2175 127.516C85.7767 131.782 95.7748 144.965 93.251 153.496C91.3744 159.99 84.9355 163.448 78.5289 164.869C72.1224 166.291 54.4234 161.671 54.4234 161.671L46.3344 125.158Z" fill="#001C49"/>
<path d="M72.4135 228.783C72.4135 233.759 68.6601 238.218 72.2517 261.515C72.5753 263.583 67.7542 267.687 63.3537 267.655C58.5973 267.622 55.4588 264.908 56.3971 261.677C59.3415 251.628 59.9563 238.38 60.5064 228.04C60.7005 223.71 72.4135 228.783 72.4135 228.783Z" fill="#E8C8BA"/>
<path d="M42.8399 228.783C43.1958 235.536 44.7165 244.099 42.9369 250.142C41.1573 256.184 38.31 258.866 39.0218 261.16C39.7337 263.486 51.4143 262.032 52.838 260.805C54.2616 259.544 54.4558 258.834 54.4558 252.791C54.4558 246.749 53.6469 242.871 53.841 239.608C54.0028 236.344 52.5144 226.812 52.5144 226.812L42.8399 228.783Z" fill="#DDAC9E"/>
<path d="M39.3129 258.026C40.3807 261.225 50.3788 260.74 54.0351 257.444C54.6175 256.927 56.3971 264.068 53.5497 265.878C50.7023 267.655 45.8165 270.175 42.9692 270.175C40.1218 270.175 36.7891 265.522 36.7891 263.034C36.7891 260.546 39.3129 258.026 39.3129 258.026Z" fill="black"/>
<path d="M53.9704 241.062C55.3941 243.679 57.7561 244.261 56.0735 248.526C53.9057 254.084 55.6206 249.657 54.4234 252.791C54.4234 252.791 53.9704 243.938 53.8086 242.548C53.7115 241.87 53.9704 241.062 53.9704 241.062Z" fill="black"/>
<path d="M57.2707 257.089C57.4972 260.191 60.1181 261.839 62.2536 261.839C66.2981 261.839 70.9898 258.284 71.7016 257.089C73.0282 261.096 73.2224 264.65 71.2487 266.524C69.8573 267.849 62.9007 271.306 61.0564 270.854C59.1474 270.369 54.1645 266.589 55.1028 263.26C56.0735 259.932 57.2707 257.089 57.2707 257.089Z" fill="black"/>
<path d="M39.4423 147.453C30.5767 148.843 30.4149 165.968 30.4149 165.968C30.4149 165.968 36.595 212.465 38.7305 244.487C42.4514 247.75 60.571 243.776 60.571 243.776C60.571 243.776 57.6266 181.64 57.0118 172.818C56.5588 166.033 62.2535 143.899 39.4423 147.453Z" fill="#001C49"/>
<path d="M53.9379 144.868C50.864 143.026 46.8195 141.12 41.5778 144.448C46.3342 148.003 46.1077 151.751 46.3342 153.399C46.5606 155.047 48.6962 240.706 48.955 245.456C48.955 245.456 57.9824 244.972 58.2089 243.098C58.4354 241.191 59.6326 151.04 58.9208 149.618C58.2089 148.164 53.9379 144.868 53.9379 144.868Z" fill="#0D3B7F"/>
<path d="M82.2175 154.594C89.7565 169.652 83.1558 160.992 83.1558 166.679C83.1558 183.417 77.1699 241.126 74.1284 246.167C73.4166 247.363 55.1029 246.652 55.1029 246.652C53.7116 236.441 58.0797 188.328 55.1029 167.39C51.576 142.477 77.2346 144.61 82.2175 154.594Z" fill="#0D3B7F"/>
<path d="M55.1352 167.39C58.1119 188.296 53.7438 236.409 55.1352 246.652C55.1352 246.652 59.3738 246.813 63.839 246.846C64.4861 231.95 67.5276 167.842 67.9806 160.281C68.5307 151.395 71.2486 153.625 73.8695 148.002C61.1858 143.737 52.7732 151.008 55.1352 167.39Z" fill="#001C49"/>
<path d="M77.817 168.456C84.2235 167.035 90.533 163.9 92.442 157.438C93.0244 155.402 93.7363 149.263 93.1539 146.872C87.5239 141.702 81.085 142.477 79.726 142.477C77.9464 142.477 71.1839 151.912 69.372 153.69C69.372 153.69 75.2285 161.897 78.27 167.681C79.2407 167.713 77.1375 168.618 77.817 168.456Z" fill="#0D3B7F"/>
<path d="M46.1077 13.3896C47.4667 14.2298 52.3525 14.2944 56.2676 16.2977C60.1827 18.3011 68.0453 23.1479 66.9128 32.8416C68.9189 30.7736 65.5538 20.3691 61.9946 17.4287C54.6821 11.3863 48.6315 13.2927 47.3696 13.325C46.1077 13.3896 46.1077 13.3896 46.1077 13.3896Z" fill="#B57A52"/>
<path d="M45.6225 11.5155C47.0461 8.44583 51.5113 5.11766 58.9209 9.15669C69.8573 15.1022 68.6602 29.3195 67.2365 33.3586C67.2365 33.3586 67.0747 24.8928 64.648 21.1445C59.4062 13.0665 48.2757 13.9066 46.2049 13.7773C44.5547 13.6804 45.6225 11.5155 45.6225 11.5155Z" fill="#D1956D"/>
<path d="M45.3959 13.8743C45.1694 16.0069 48.6639 16.1038 53.2262 17.6871C65.6833 22.017 65.2303 28.7379 65.3921 29.2549C65.3921 29.2549 65.6833 25.7652 62.1241 20.466C58.5326 15.1344 45.3959 13.8743 45.3959 13.8743Z" fill="#D1956D"/>
<path d="M56.0088 88.1925C54.941 84.2827 46.043 67.1895 45.3312 63.9906C44.6194 60.7917 45.3312 54.3939 45.3312 54.3939C45.3312 54.3939 41.2219 57.7866 39.7983 59.2084C38.3746 60.6301 33.3917 72.5534 33.3917 72.5534C33.3917 72.5534 41.2219 69.1606 45.493 72.004C49.764 74.8475 55.0057 90.519 55.0057 90.519L56.0088 88.1925Z" fill="#AAC9E2"/>
<path d="M54.7793 85.8983C55.847 81.9885 64.3244 66.6725 65.0362 63.4736C65.7481 60.2747 65.0362 53.8768 65.0362 53.8768C65.0362 53.8768 70.1162 58.1421 71.5399 59.5638C72.9635 60.9855 78.8524 71.8424 78.8524 71.8424C78.8524 71.8424 72.64 68.8051 67.9807 70.9377C57.1089 75.9138 54.6822 89.5819 54.6822 89.5819L54.7793 85.8983Z" fill="#7AA7D6"/>
<path d="M41.5778 133.3V129.617L85.5177 141.249V144.965H49.9581L41.5778 133.3Z" fill="#AAC9E2"/>
<path d="M85.5177 141.249H49.9581L41.5778 129.617H71.5721L85.5177 141.249Z" fill="white"/>
<path d="M24.8497 128.874C25.788 132.234 37.3716 136.305 37.7598 136.435C40.769 137.372 43.0339 139.052 45.5253 138.567C48.9228 137.889 50.1199 136.79 53.5497 137.501C56.9148 138.18 57.2383 138.212 57.4648 137.663C57.756 137.016 57.0765 137.404 55.1999 136.661C53.3232 135.918 49.311 135.821 50.0229 135.53C50.7347 135.239 57.2383 136.661 58.3708 136.758C59.5033 136.855 61.1211 136.725 59.9239 136.047C58.7267 135.368 52.9673 133.979 51.9643 133.688C50.9612 133.365 59.9239 135.595 60.6357 135.595C61.5417 135.595 61.3799 134.69 59.8268 134.141C55.4587 132.557 54.1968 132.331 53.485 132.169C53.1614 132.073 54.2939 132.137 55.2322 132.299C56.8501 132.59 57.4325 133.042 58.3061 133.333C59.8592 133.85 61.1211 133.397 59.2121 132.299C57.4325 131.265 57.4325 131.168 56.3324 130.748C55.5882 130.457 54.1968 129.811 51.8995 130.037C51.0583 130.101 45.0076 130.651 42.678 130.457C40.6395 130.263 33.2299 125.061 32.2916 125.255L24.8497 128.874Z" fill="#DDAC9E"/>
<path d="M26.6293 67.028C13.3308 62.2781 15.9517 101.182 8.80096 121.377C5.50061 130.715 34.233 145.094 37.3069 136.564C40.8661 133.01 43.8752 130.069 41.0926 128.486C37.3392 126.353 28.506 117.08 28.506 117.08C26.3704 116.013 34.8154 93.007 32.6476 90.8744C30.5121 88.7418 26.8234 71.1963 26.8234 71.1963L26.6293 67.028Z" fill="#7AA7D6"/>
<path d="M95.6454 125.675C95.5483 129.164 85.0649 135.595 84.7089 135.788C81.991 137.436 80.4703 139.343 77.9465 139.44C74.452 139.569 72.7695 140.021 69.6309 141.508C66.5247 142.994 65.8452 142.994 65.4893 142.509C65.0363 141.928 67.0424 141.023 68.6926 139.86C70.3427 138.697 72.1223 138.535 71.3781 138.438C70.6339 138.341 65.2304 141.185 64.1627 141.54C63.0626 141.895 61.4447 141.637 62.4478 140.7C63.4508 139.763 68.9514 136.79 69.825 136.241C70.731 135.692 63.2243 140.506 62.5449 140.668C61.6712 140.894 61.6065 139.957 62.9978 139.052C66.8806 136.499 68.0778 135.142 68.7249 134.819C69.0161 134.658 67.6572 135.788 66.8159 136.144C65.3275 136.79 64.8422 137.792 64.0656 138.276C62.6743 139.149 61.6065 138.89 63.192 137.372C64.6804 135.95 65.3275 135.045 66.0717 134.787C66.8159 134.528 68.4661 132.848 70.731 132.493C71.5399 132.363 77.72 132.137 79.4672 131.749C81.4733 131.297 86.618 123.898 87.5887 123.833L95.6454 125.675Z" fill="#E8C8BA"/>
<path d="M86.6501 67.3834C95.6775 64.3137 100.24 101.796 104.543 118.501C107.002 128.098 86.8766 145.676 83.7704 137.146C80.2112 133.591 77.0727 131.717 78.6258 128.938C80.8583 125.028 87.4267 116.369 87.4267 116.369C89.5622 115.302 79.5317 98.3385 80.7613 96.012C82.185 93.3624 85.6471 71.8102 85.6471 71.8102L86.6501 67.3834Z" fill="#7AA7D6"/>
<path d="M266.94 255.926H260.501L253.253 170.977H259.692L266.94 255.926Z" fill="#03DAC5"/>
<path d="M163.141 255.926H156.702L166.344 170.977H172.783L163.141 255.926Z" fill="#03DAC5"/>
<path d="M256.489 239.737H251.474L244.226 173.82H249.241L256.489 239.737Z" fill="#03DAC5"/>
<path d="M172.168 239.737H167.153L176.828 173.82H181.81L172.168 239.737Z" fill="#03DAC5"/>
<path d="M252.606 137.243C252.606 141.443 249.694 144.836 246.135 144.836H181.422C177.831 144.836 174.951 141.443 174.951 137.243V91.6177C174.433 81.8917 181.616 72.1657 190.061 73.8782H239.664C248.497 74.7184 252.606 84.8967 252.606 89.0973V137.243Z" fill="#03DAC5"/>
<path d="M255.971 159.99H168.027C168.027 159.99 151.137 170.137 159.161 175.21C167.218 180.283 206.66 181.963 209.863 181.963C210.219 181.963 213.779 181.963 214.134 181.963C217.338 181.963 256.78 180.283 264.837 175.21C272.861 170.137 255.971 159.99 255.971 159.99Z" fill="#03DAC5"/>
<path d="M242.608 130.037C247.397 141.799 257.945 158.633 246.07 162.188C239.728 164.094 194.947 167.842 188.573 165.613C182.199 163.416 175.404 163.189 177.539 149.941C179.675 136.726 179.772 140.474 185.272 139.084C238.402 125.869 242.608 130.037 242.608 130.037Z" fill="#001C49"/>
<path d="M214.523 60.8564L201.612 55.8803C201.612 55.8803 205.139 37.5592 205.139 35.7174L213.811 35.0066H213.843H213.908L222.385 35.4266C222.385 37.2684 225.427 53.3599 225.427 53.3599L214.523 60.8564Z" fill="#E8C8BA"/>
<path d="M213.552 35.0066H213.617H213.681L221.123 35.4266C221.123 36.0406 223 40.015 223.323 42.4384C221.447 45.2172 209.378 53.5215 205.786 53.5215C202.81 53.5215 203.91 56.1065 202.033 54.0708C202.421 51.0334 205.301 36.1375 205.301 35.4266L213.552 35.0066Z" fill="url(#paint3_linear_254_2092)"/>
<path d="M225.524 47.0914C224.424 48.4808 217.046 54.7817 213.681 54.4263C210.316 54.0708 203.424 51.0981 202.292 48.6747C201.354 49.6764 198.344 50.3549 198.344 50.3549L214.296 103.121L229.989 51.3243L225.524 47.0914Z" fill="#7AA7D6"/>
<path d="M211.675 58.7561H214.134V52.3583H209.248V55.1048L211.675 58.7561Z" fill="black"/>
<path d="M211.352 57.7867L207.081 98.2094L213.843 103.509L214.005 103.347L214.231 57.819L211.352 57.7867Z" fill="black"/>
<path d="M215.978 58.7561H213.94V52.3583H218.923L218.891 55.1048L215.978 58.7561Z" fill="#1E1E1E"/>
<path d="M216.334 57.7867L220.606 98.2094L213.843 103.509L213.94 57.7867H216.334Z" fill="#1E1E1E"/>
<path d="M211.254 58.6914H216.399V58.239H211.319L211.254 58.6914Z" fill="black"/>
<path d="M212.581 52.3259L206.304 59.1438L200.706 52.0674L198.991 48.8362L203.489 44.7325L212.581 52.3259Z" fill="#AAC9E2"/>
<path d="M216.076 52.4875L221.673 58.9823L227.562 48.2869L223.776 44.4094L216.076 52.4875Z" fill="#AAC9E2"/>
<path d="M221.835 127.064L205.333 132.557L205.01 141.249L221.512 137.469L221.835 127.064Z" fill="#1E1E1E"/>
<path d="M199.089 25.0221C200.512 35.976 207.631 45.7019 212.937 45.6373C224.877 45.5081 227.077 38.9487 227.692 24.7959C228.177 13.0666 228.08 2.08039 213.649 2.08039C200.092 2.04808 197.6 13.5512 199.089 25.0221Z" fill="#E8C8BA"/>
<path d="M198.441 22.5664C198.571 11.354 200.092 2.11272 213.584 2.0481C213.584 2.0481 213.811 45.6373 213.746 45.6373C204.524 45.8312 198.247 37.0423 198.441 22.5664Z" fill="#DDAC9E"/>
<path d="M200.318 24.9898C200.318 22.3402 201.515 19.8844 200.545 17.978C199.574 16.0393 199.38 14.4237 200.059 12.0325C201.515 6.95952 207.307 4.7946 208.99 4.30992C210.672 3.82523 209.248 1.17563 209.248 1.17563C209.248 1.17563 204.88 1.43413 202.227 3.14668C199.574 4.82691 199.121 5.0531 196.921 9.64144C194.753 14.2298 195.95 16.6532 196.953 20.3368C197.697 23.1803 197.212 25.7653 197.212 25.7653L198.83 24.602L200.318 24.9898Z" fill="black"/>
<path d="M221.803 10.5139C226.236 11.2571 226.397 13.422 226.397 16.5563C226.397 19.6906 227.368 26.4115 227.368 26.4115L229.212 25.8945C229.212 25.8945 227.336 24.2789 229.245 19.2705C230.992 14.7468 230.248 7.15343 225.686 4.66539C222.709 3.04978 221.965 1.0141 214.781 1.75728C211.902 2.08041 219.991 10.2231 221.803 10.5139Z" fill="#1E1E1E"/>
<path d="M227.368 25.1513C228.047 24.1819 229.924 21.597 230.409 24.3112C230.895 27.0254 229.309 30.3536 228.209 31.4845C227.077 32.6154 226.397 31.0645 226.138 32.0338C226.009 32.4862 227.368 25.1513 227.368 25.1513Z" fill="#E8C8BA"/>
<path d="M200.318 26.153C199.671 23.0187 197.018 21.8232 196.532 24.5374C196.047 27.2516 197.503 31.226 198.603 32.357C199.736 33.4879 201.321 33.811 201.321 33.3263C201.353 32.874 200.318 26.153 200.318 26.153Z" fill="#DDAC9E"/>
<path d="M202.421 11.1924C211.805 16.524 221.156 11.2894 223.679 10.837C226.203 10.3846 223.485 8.63977 221.544 4.2453C220.12 1.04638 216.852 1.72494 212.84 0.432452C208.537 -0.924663 204.168 1.3372 205.366 1.43413C206.563 1.53107 207.372 1.62801 205.366 1.43413C203.263 1.27257 198.636 3.53443 196.985 8.86595C195.529 13.5512 197.471 22.1463 198.603 22.6633C200.512 23.5357 200.318 22.8249 200.189 21.2739C199.315 11.4832 202.421 11.1924 202.421 11.1924Z" fill="black"/>
<path d="M253.997 264.004C254.224 266.298 254.838 268.269 251.376 269.4C247.914 270.563 240.278 270.498 236.331 268.883C233.872 267.881 232.286 264.521 231.574 263.713C231.574 263.713 229.245 262.679 228.468 262.42C226.397 261.742 224.521 255.538 225.944 255.279C227.303 255.053 253.997 264.004 253.997 264.004Z" fill="#1E1E1E"/>
<path d="M226.883 244.455C226.333 248.946 223.938 258.543 227.077 259.803C228.727 260.482 230.215 258.866 232.286 263.228C235.166 269.27 246.458 268.269 249.403 267.849C252.638 267.396 255.842 266.104 253.124 261.354C250.244 256.313 244.549 259.286 241.767 241.967C241.281 238.865 236.978 241.191 236.978 241.191L226.883 244.455Z" fill="black"/>
<path d="M183.978 261.871C183.881 264.197 182.522 268.883 186.049 269.82C189.576 270.789 197.924 270.854 201.742 269.012C204.136 267.849 205.722 263.68 206.369 262.84C206.369 262.84 206.369 262.582 207.145 262.291C209.184 261.483 209.443 253.954 208.051 253.825C206.628 253.664 183.978 261.871 183.978 261.871Z" fill="#1E1E1E"/>
<path d="M208.213 239.963C206.822 254.73 211.158 255.635 208.019 257.606C206.531 258.543 206.401 257.832 204.751 262.388C202.842 267.59 192.391 266.976 189.414 266.718C186.146 266.459 182.846 266.039 183.752 262.55C185.305 256.766 192.197 259.221 193.944 241.773C194.268 238.638 196.888 240.706 196.888 240.706L208.213 239.963Z" fill="black"/>
<path d="M198.053 144.093C189.738 144.771 181.39 149.618 180.71 161.412C180.031 173.174 185.984 241.03 187.376 251.434C193.685 247.589 201.709 247.589 201.709 247.589C201.709 247.589 201.515 166.259 200.836 158.633C200.124 151.04 198.053 144.093 198.053 144.093Z" fill="#001C49"/>
<path d="M198.053 144.093C201.515 144.093 212.775 146.969 213.487 153.883C214.167 160.798 212.225 245.521 212.225 249.689C203.91 248.3 198.247 247.944 198.247 247.944L198.053 144.093Z" fill="#0D3B7F"/>
<path d="M241.928 147.389C246.62 148.778 247.397 153.754 247.397 162.769C247.397 171.784 247.526 242.064 247.526 246.91C241.443 247.072 234.648 244.035 234.648 244.035C234.648 244.035 235.522 163.512 232.739 156.565C229.957 149.65 224.941 147.389 229.795 145.321C234.648 143.22 241.928 147.389 241.928 147.389Z" fill="#0D3B7F"/>
<path d="M234.842 145.159C224.618 142.897 217.823 147.324 217.823 154.239C217.823 161.186 218.211 191.721 218.891 208.33C219.603 224.97 220.962 249.689 220.962 249.689L239.858 245.844L234.842 145.159Z" fill="#001C49"/>
<path d="M250.114 58.3683C258.592 57.9806 256.424 80.1791 261.633 100.342C262.475 103.541 264.578 117.047 259.142 124.673C252.703 133.721 248.464 114.365 248.464 114.365L233.451 76.9802L250.114 58.3683Z" fill="#0D3B7F"/>
<path d="M213.94 139.537C174.207 145.418 179.125 164.546 177.183 161.703C168.997 149.586 187.57 120.957 187.732 115.917C187.926 109.196 184.819 90.3575 183.849 87.4817C182.878 84.6059 173.592 77.8527 173.592 77.8527C173.592 77.8527 169.709 58.95 178.381 56.3327C186.211 53.9739 190.288 54.814 198.571 49.741C198.571 49.741 201.062 65.8971 203.392 70.5501C205.754 75.2677 210.996 97.8216 213.325 100.439C213.843 101.279 220.12 138.632 213.94 139.537Z" fill="#001C49"/>
<path d="M213.228 122.605L212.646 100.31C212.646 100.31 223.226 72.8766 228.047 52.843L228.177 49.1594C241.184 55.0402 242.64 54.6201 249.791 57.3021C253.706 58.7884 249.791 66.5434 249.791 66.5434C249.791 66.5434 244.452 93.4918 243.481 96.3676C242.511 99.2434 240.472 109.325 240.666 116.046C240.763 119.115 252.735 141.023 254.159 158.472C254.515 162.737 243.093 137.824 211.481 137.081L213.228 122.605Z" fill="#0D3B7F"/>
<path d="M200.189 47.8023C198.377 48.8686 194.332 51.3566 194.332 51.3566L191.258 61.9874L197.859 61.1472L191.808 67.7389L213.455 101.441C213.455 101.441 202.324 61.3088 200.48 56.1065C198.183 49.741 200.189 47.8023 200.189 47.8023Z" fill="#0D3B7F"/>
<path d="M227.206 47.5761C228.242 48.2223 233.742 51.6151 233.742 51.6151L237.398 62.9567L230.798 62.1166L234.745 70.7763L212.84 101.021C212.84 101.021 224.165 60.4687 226.43 55.428C228.695 50.3872 227.206 47.5761 227.206 47.5761Z" fill="#001C49"/>
<path d="M194.882 137.695L186.47 150.103H240.958L234.227 137.404L194.882 137.695Z" fill="white"/>
<path d="M240.602 138.212C240.925 136.467 237.269 133.882 235.101 131.297C235.101 131.297 225.394 129.94 218.858 131.782C217.337 132.202 216.496 132.977 213.681 134.852C211.546 136.241 211.837 137.695 214.231 136.984C216.205 136.37 218.179 135.142 218.179 135.142L221.673 134.593C221.673 134.593 218.923 135.369 218.211 135.627C217.467 135.853 214.166 138.083 213.228 138.503C211.869 139.117 211.707 140.926 213.94 140.442C216.173 139.957 217.337 139.149 218.438 138.794C220.023 138.309 222.87 137.695 222.87 137.695C219.699 138.858 215.04 140.086 214.069 141.185C213.099 142.316 214.134 143.705 216.367 142.542C220.379 140.442 223.679 140.377 223.679 140.377L217.726 142.251C217.726 142.251 216.011 144.125 218.955 143.544C226.494 142.154 232.674 142.186 234.907 140.991C236.816 140.021 240.375 139.472 240.602 138.212Z" fill="#E8C8BA"/>
<path d="M241.766 140.442C242.058 138.083 241.961 132.525 234.777 129.94C231.639 130.199 232.933 130.683 232.933 130.683C232.933 130.683 240.86 138.244 235.716 142.477L241.766 140.442Z" fill="white"/>
<path d="M248.691 109.745C245.779 112.524 234.422 128.971 234.422 128.971C234.422 128.971 241.863 135.853 240.569 143.608C240.569 143.608 261.698 125.61 261.989 117.597C262.183 112.394 248.691 109.745 248.691 109.745Z" fill="#0D3B7F"/>
<path d="M182.781 130.392C182.781 130.392 198.668 135.336 200.092 135.789C201.483 136.241 201.645 136.758 203.586 139.214C205.042 141.023 204.395 141.896 202.518 140.571C200.933 139.472 199.801 138.535 199.801 138.535L196.759 137.372C196.759 137.372 200.286 140.151 200.868 140.603C201.451 141.023 202.971 143.77 203.651 144.416C204.654 145.353 204.395 147.162 202.551 146.096C200.739 145.03 200.221 143.479 199.089 142.639C197.956 141.799 194.915 140.571 194.915 140.571C198.021 142.93 201.742 145.935 202.26 147.195C202.777 148.455 200.674 147.938 198.83 146.516C196.953 145.127 193.944 143.705 193.944 143.705L198.28 147.97C198.28 147.97 199.542 149.909 196.468 148.164C190.611 144.868 186.34 143.253 185.337 142.671C172.006 134.722 176.763 133.753 182.781 130.392Z" fill="#DDAC9E"/>
<path d="M178.057 138.471C180.16 134.108 180.969 129.455 188.088 129.391C190.385 131.168 191.906 132.654 191.906 132.654C191.906 132.654 187.893 132.137 181.519 143.059L178.057 138.471Z" fill="white"/>
<path d="M174.562 61.7935C172.783 64.6369 162.623 109.422 164.111 123.478C164.694 128.971 177.183 148.164 177.183 148.164C177.183 148.164 181.875 136.37 189.77 130.134L181.81 113.299L187.667 92.4901L174.562 61.7935Z" fill="#001C49"/>
<defs>
<linearGradient id="paint0_linear_254_2092" x1="346.176" y1="66.0824" x2="353.948" y2="39.9938" gradientUnits="userSpaceOnUse">
<stop stop-color="white"/>
<stop offset="0.6429" stop-color="#C6C0B9"/>
</linearGradient>
<linearGradient id="paint1_linear_254_2092" x1="338.136" y1="79.7088" x2="359.83" y2="49.6843" gradientUnits="userSpaceOnUse">
<stop offset="0.0989" stop-color="white"/>
<stop offset="0.8901" stop-color="#C6C0B9"/>
</linearGradient>
<linearGradient id="paint2_linear_254_2092" x1="49.5737" y1="66.0825" x2="57.3456" y2="39.9942" gradientUnits="userSpaceOnUse">
<stop stop-color="white"/>
<stop offset="0.6429" stop-color="#C6C0B9"/>
</linearGradient>
<linearGradient id="paint3_linear_254_2092" x1="209.948" y1="53.0694" x2="216.967" y2="30.0255" gradientUnits="userSpaceOnUse">
<stop stop-color="white"/>
<stop offset="0.2527" stop-color="#C6C0B9"/>
</linearGradient>
</defs>
</svg>
