<svg width="156" height="26" viewBox="0 0 156 26" fill="none" xmlns="http://www.w3.org/2000/svg">
<g clip-path="url(#clip0_254_2262)">
<path d="M27.3984 5.19972C27.0562 4.23054 26.5279 3.34948 25.8575 2.59915C25.6644 2.38314 25.4599 2.17851 25.244 1.98524C24.4941 1.31307 23.6136 0.784434 22.645 0.443376C21.8327 0.156318 20.9593 0 20.0475 0C19.1357 0 18.2623 0.156318 17.4486 0.443376C16.48 0.785855 15.5995 1.3145 14.8496 1.98524C14.6337 2.17851 14.4292 2.38314 14.2361 2.59915C13.5643 3.34948 13.036 4.23054 12.6952 5.19972C12.4069 6.01257 12.2521 6.88795 12.2521 7.80028V13.0114C12.0774 13.0043 11.9013 13 11.7252 13C11.0207 13 10.3291 13.0568 9.65452 13.1663C8.75269 13.3126 7.88353 13.5528 7.05556 13.8768C6.13243 14.2378 5.26185 14.7024 4.4566 15.2581C4.29612 15.3675 4.1399 15.4812 3.98509 15.5991C3.20115 16.1932 2.48679 16.8767 1.85906 17.6327C1.70568 17.8174 1.55798 18.005 1.41596 18.1983C0.866344 18.9401 0.394839 19.743 0.0142264 20.5956C-0.0283795 20.6909 0.0426303 20.7989 0.146305 20.7989H2.67141C2.72112 20.7989 2.76799 20.7719 2.79355 20.7292C3.25511 19.9505 3.81467 19.2371 4.45802 18.6061C4.60004 18.4655 4.74774 18.3305 4.89828 18.1983C5.55015 17.627 6.27587 17.1368 7.05698 16.7417C7.86791 16.3324 8.73991 16.0255 9.65594 15.8407C10.3248 15.7043 11.0179 15.6333 11.7266 15.6333C11.9041 15.6333 12.0788 15.6375 12.2535 15.646V25.8536C12.2535 25.9332 12.3174 25.9972 12.3969 25.9972H14.709C14.7885 25.9972 14.8524 25.9332 14.8524 25.8536V15.5977H19.4667C19.4553 15.5892 19.4453 15.5807 19.4354 15.5736C19.4482 15.575 19.4596 15.575 19.4709 15.5764C19.4936 15.5778 19.5178 15.5793 19.5419 15.5807C19.5717 15.5835 19.6001 15.5849 19.63 15.5864C19.6484 15.5878 19.6683 15.5878 19.6868 15.5892C19.7052 15.5906 19.7237 15.5906 19.7422 15.592C19.8444 15.5963 19.9481 15.5977 20.0518 15.5977C20.9635 15.5977 21.837 15.4414 22.6507 15.1544C23.6193 14.8119 24.4998 14.2832 25.2497 13.6125C25.4656 13.4192 25.6701 13.2146 25.8632 12.9986C26.535 12.2483 27.0633 11.3672 27.4041 10.398C27.6924 9.58515 27.8472 8.70977 27.8472 7.79744C27.8472 6.88511 27.6867 6.01399 27.3984 5.19972ZM24.5495 10.3994C24.0936 11.1895 23.4361 11.8475 22.6465 12.3037C21.8824 12.7456 20.9948 13 20.0475 13H14.851V7.80028C14.851 6.85385 15.1038 5.96568 15.5469 5.19972C16.0028 4.4096 16.6603 3.75164 17.45 3.29547C18.214 2.85352 19.1017 2.59915 20.0489 2.59915C20.9962 2.59915 21.8824 2.8521 22.6479 3.29547C23.4375 3.75164 24.0951 4.4096 24.551 5.19972C24.9926 5.96425 25.2468 6.85243 25.2468 7.80028C25.244 8.74672 24.9912 9.63489 24.5495 10.3994Z" fill="#03DAC5"/>
<path d="M35.2578 6.12199C35.2578 5.76957 35.5148 5.46972 35.8628 5.41856C36.8782 5.26935 38.1351 5.16135 39.6717 5.16135C41.9227 5.16135 43.5886 5.68288 44.6481 6.63784C45.611 7.48765 46.2089 8.77514 46.2089 10.3568C46.2089 11.9669 45.7289 13.2373 44.8285 14.1582C43.6043 15.457 41.643 16.1036 39.4019 16.1036C39.0156 16.1036 38.6492 16.0951 38.3098 16.0653C37.9022 16.0283 37.5471 16.3409 37.5471 16.7502V22.3748C37.5471 22.7557 37.2389 23.0641 36.8583 23.0641H35.9451C35.5645 23.0641 35.2563 22.7557 35.2563 22.3748V6.12199H35.2578ZM37.5485 13.513C37.5485 13.8555 37.7999 14.1482 38.1379 14.1965C38.5242 14.252 38.9631 14.2733 39.4502 14.2733C42.2309 14.2733 43.9096 12.9076 43.9096 10.4804C43.9096 8.12855 42.2324 6.9789 39.7172 6.9789C39.0909 6.9789 38.564 7.01443 38.1564 7.06275C37.8084 7.10396 37.5471 7.39812 37.5471 7.7477V13.513H37.5485Z" fill="#6E00EE"/>
<path d="M51.4182 13.7617C51.4182 12.7186 51.3912 11.8432 51.3501 11.0048C51.3316 10.6311 51.6298 10.3184 52.0048 10.3184H52.7092C53.0557 10.3184 53.3426 10.5884 53.3639 10.9352L53.4491 12.3705H53.513C54.2217 11.1583 55.4104 10.0285 57.535 10.0285C59.262 10.0285 60.5799 11.0801 61.1267 12.5836H61.1792C61.5868 11.8589 62.0896 11.3075 62.6165 10.9238C63.3876 10.344 64.2185 10.0285 65.4199 10.0285C67.1213 10.0285 69.6251 11.1256 69.6251 15.5594V22.4104C69.6251 22.7727 69.3312 23.0655 68.9704 23.0655H68.0189C67.6567 23.0655 67.3642 22.7713 67.3642 22.4104V15.8564C67.3642 13.3865 66.4538 11.9257 64.5991 11.9257C63.2712 11.9257 62.2515 12.892 61.8425 14.0118C61.7317 14.3472 61.6536 14.7621 61.6536 15.1742V22.4104C61.6536 22.7727 61.3596 23.0655 60.9989 23.0655H60.0473C59.6852 23.0655 59.3926 22.7713 59.3926 22.4104V15.4158C59.3926 13.3851 58.4951 11.9257 56.7454 11.9257C55.3025 11.9257 54.243 13.0796 53.8567 14.2392C53.7431 14.5788 53.682 14.9838 53.682 15.3803V22.4089C53.682 22.7713 53.388 23.0641 53.0273 23.0641H52.0758C51.7136 23.0641 51.4211 22.7699 51.4211 22.4089V13.7617H51.4182Z" fill="#6E00EE"/>
<path d="M78.2514 17.1112C77.7217 17.1112 77.3183 17.5887 77.4078 18.1102C77.8211 20.5218 79.6176 21.5364 81.6783 21.5364C82.823 21.5364 83.6609 21.3943 84.3512 21.1897C84.8227 21.0504 85.3155 21.3247 85.4333 21.8021C85.5413 22.2384 85.2927 22.6789 84.8667 22.8211C84.033 23.0982 82.8656 23.3426 81.3616 23.3426C77.4476 23.3426 75.0929 20.7335 75.0929 16.9094C75.0929 13.0455 77.3666 10.0285 81.0875 10.0285C85.2445 10.0285 86.3309 13.6779 86.3309 16.0241C86.3309 16.1122 86.3295 16.1946 86.3281 16.2742C86.3181 16.7403 85.9389 17.1112 85.4731 17.1112H78.2514ZM83.1738 15.4443C83.7035 15.4443 84.1126 14.9668 84.0174 14.4467C83.776 13.1251 82.9579 11.6912 80.9043 11.6912C79.0709 11.6912 78.0526 12.9773 77.6024 14.3074C77.4135 14.8645 77.8225 15.4443 78.4105 15.4443H83.1738Z" fill="#6E00EE"/>
<path d="M91.8554 13.7617C91.8554 12.7357 91.8299 11.8717 91.7887 11.046C91.7688 10.6495 92.0855 10.3184 92.4817 10.3184H93.1435C93.5099 10.3184 93.8139 10.6041 93.8366 10.9707L93.9246 12.4145H93.99C94.6163 11.2166 96.0975 10.0285 98.2023 10.0285C99.952 10.0285 102.692 11.0816 102.692 15.4613V22.372C102.692 22.7557 102.38 23.0669 101.997 23.0669H101.08C100.696 23.0669 100.385 22.7557 100.385 22.372V15.7171C100.385 13.6565 99.6097 11.9299 97.4396 11.9299C95.9186 11.9299 94.7327 13.0114 94.318 14.3088C94.2215 14.5916 94.159 15.0023 94.159 15.3846V22.372C94.159 22.7557 93.848 23.0669 93.4645 23.0669H92.5471C92.1636 23.0669 91.8526 22.7557 91.8526 22.372V13.7617H91.8554Z" fill="#6E00EE"/>
<path d="M111.785 7.08122V9.9859C111.785 10.1692 111.934 10.3184 112.117 10.3184H114.782C114.965 10.3184 115.114 10.4676 115.114 10.651V11.7409C115.114 11.9242 114.965 12.0735 114.782 12.0735H112.117C111.934 12.0735 111.785 12.2227 111.785 12.406V18.9429C111.785 20.5303 112.242 21.4284 113.538 21.4284C113.93 21.4284 114.252 21.3971 114.513 21.3488C114.709 21.3133 114.892 21.4568 114.904 21.6558L114.971 22.7699C114.98 22.9248 114.882 23.0641 114.733 23.1095C114.286 23.2445 113.663 23.3412 112.916 23.3412C111.85 23.3412 110.966 22.9902 110.415 22.3592C109.777 21.6558 109.516 20.5317 109.516 19.0339V12.4088C109.516 12.2255 109.366 12.0763 109.183 12.0763H107.875C107.692 12.0763 107.543 11.9271 107.543 11.7438V10.6538C107.543 10.4705 107.692 10.3213 107.875 10.3213H109.183C109.366 10.3213 109.516 10.1721 109.516 9.98874V7.5047C109.516 7.35407 109.618 7.22191 109.763 7.18354L111.367 6.76006C111.579 6.70464 111.785 6.8638 111.785 7.08122Z" fill="#6E00EE"/>
<path d="M131.732 16.5711C131.732 21.292 128.458 23.3568 125.396 23.3568C121.941 23.3568 119.272 20.8372 119.272 16.79C119.272 12.5239 122.074 10.0299 125.599 10.0299C129.261 10.0299 131.732 12.6873 131.732 16.5711ZM121.63 16.7189C121.63 19.5156 123.23 21.6202 125.491 21.6202C127.713 21.6202 129.373 19.5426 129.373 16.6507C129.373 14.495 128.286 11.7679 125.533 11.7679C122.813 11.7665 121.63 14.3017 121.63 16.7189Z" fill="#6E00EE"/>
<path d="M137.292 14.2889C137.292 12.784 137.255 11.5008 137.187 10.3184H139.218L139.306 12.8195H139.388C139.983 11.1086 141.388 10.0285 142.936 10.0285C143.187 10.0285 143.369 10.0442 143.58 10.0939V12.2738C143.343 12.2241 143.11 12.207 142.792 12.207C141.159 12.207 140.006 13.4391 139.69 15.1728C139.631 15.4983 139.597 15.8777 139.597 16.2557V23.0669H137.292V14.2889Z" fill="#6E00EE"/>
<path d="M148.217 20.7065C148.916 21.1427 150.135 21.6145 151.288 21.6145C152.979 21.6145 153.763 20.7818 153.763 19.716C153.763 18.6004 153.089 18.0164 151.396 17.3826C149.094 16.5484 148.004 15.295 148.01 13.7674C148.01 11.7139 149.677 10.0299 152.417 10.0299C153.713 10.0299 154.83 10.3809 155.537 10.8144L154.962 12.4998C154.472 12.1914 153.539 11.7494 152.349 11.7494C150.981 11.7494 150.238 12.5381 150.238 13.4988C150.238 14.5532 150.987 15.025 152.657 15.673C154.852 16.4916 155.993 17.6 156 19.5028C156 21.7623 154.245 23.344 151.235 23.344C149.841 23.344 148.551 22.983 147.655 22.4558L148.217 20.7065Z" fill="#6E00EE"/>
</g>
<defs>
<clipPath id="clip0_254_2262">
<rect width="156" height="26" fill="white"/>
</clipPath>
</defs>
</svg>
