<svg width="363" height="287" viewBox="0 0 363 287" fill="none" xmlns="http://www.w3.org/2000/svg">
<path d="M179.397 226.335C179.397 226.335 235.23 197.118 247.338 213.228C259.453 229.339 235.184 242.016 230.489 244.862C225.794 247.709 178.377 263.882 178.377 263.882L165.865 250.478L179.397 226.335Z" fill="#000080"/>
<path d="M201.416 241.969L223.676 254.012L244.013 258.439C245.477 258.76 246.372 260.253 245.952 261.708C245.718 262.521 245.119 263.163 244.325 263.436C239.279 265.204 220.671 271.609 219.09 270.631C217.261 269.505 194.767 259.495 194.767 259.495L201.416 241.969Z" fill="#FF735D"/>
<g opacity="0.6">
<path d="M245.96 261.7L217.58 269.849L218.537 270.334C219.363 270.756 220.313 270.874 221.208 270.662C223.614 270.084 230.24 268.348 244.301 263.499C245.119 263.217 245.742 262.537 245.96 261.7Z" fill="white"/>
</g>
<g opacity="0.6">
<path d="M212.667 261.489C213.344 261.121 214.294 261.372 214.683 262.036C215.073 262.701 214.831 263.671 214.162 264.054C213.492 264.429 212.34 264.164 212.028 263.46C211.709 262.756 212.06 261.63 212.807 261.426" fill="white"/>
</g>
<path d="M233.494 261.833C233.619 261.739 232.7 260.621 232.747 258.955C232.747 257.281 233.697 256.194 233.572 256.093C233.525 256.046 233.206 256.241 232.864 256.734C232.521 257.219 232.21 258.024 232.194 258.947C232.186 259.87 232.474 260.683 232.801 261.176C233.136 261.677 233.448 261.88 233.494 261.833Z" fill="#1A2E35"/>
<path d="M237.325 261.763C237.481 261.708 237.115 260.605 237.372 259.26C237.605 257.915 238.329 257.016 238.205 256.906C238.127 256.781 237.091 257.626 236.819 259.158C236.546 260.699 237.208 261.849 237.325 261.763Z" fill="#1A2E35"/>
<path d="M228.106 262.858C228.27 262.803 227.702 261.114 227.92 258.994C228.106 256.867 228.994 255.318 228.846 255.24C228.745 255.139 227.577 256.664 227.367 258.939C227.133 261.215 227.99 262.936 228.106 262.858Z" fill="#1A2E35"/>
<path d="M221.037 259.761C221.2 259.768 221.317 258.251 222.08 256.593C222.827 254.927 223.886 253.848 223.777 253.723C223.699 253.606 222.384 254.568 221.574 256.359C220.756 258.15 220.897 259.784 221.037 259.761Z" fill="#1A2E35"/>
<path d="M214.411 256.39C214.574 256.39 214.465 254.748 215.415 253.066C216.326 251.369 217.774 250.595 217.689 250.446C217.658 250.384 217.253 250.485 216.684 250.853C216.124 251.213 215.431 251.885 214.925 252.792C214.426 253.7 214.232 254.646 214.224 255.318C214.216 255.999 214.349 256.406 214.411 256.39Z" fill="#1A2E35"/>
<path d="M214.131 252.464C214.146 252.433 213.866 252.229 213.297 251.995C212.729 251.768 211.841 251.518 210.72 251.533C210.175 251.565 209.513 251.541 208.891 252.026C208.579 252.261 208.4 252.761 208.564 253.183C208.719 253.598 209.046 253.872 209.397 254.059C210.837 254.771 212.846 254.239 213.874 252.73C214.87 251.197 214.699 249.258 213.788 247.983C213.539 247.678 213.196 247.381 212.729 247.365C212.254 247.342 211.873 247.725 211.764 248.077C211.522 248.796 211.694 249.422 211.779 249.961C212.005 251.064 212.418 251.877 212.745 252.401C213.072 252.925 213.321 253.168 213.344 253.144C213.445 253.097 212.527 252.003 212.161 249.891C212.091 249.367 211.989 248.757 212.184 248.249C212.278 247.998 212.48 247.842 212.706 247.858C212.932 247.866 213.188 248.053 213.383 248.303C214.115 249.367 214.278 251.134 213.406 252.417C212.558 253.7 210.79 254.161 209.622 253.598C209.342 253.457 209.101 253.246 209.015 253.011C208.93 252.785 209 252.534 209.186 252.37C209.584 252.018 210.206 251.963 210.728 251.924C212.877 251.823 214.107 252.581 214.131 252.464Z" fill="#1A2E35"/>
<path d="M209.404 244.831C209.404 244.831 156.787 212.814 149.678 208.841C143.566 205.431 124.257 197.876 117.46 216.466C110.655 235.055 147.288 262.482 147.288 262.482L178.385 263.882L188.764 259.901L200.552 263.546L209.404 244.831Z" fill="#000080"/>
<path d="M172.406 264.531L148.822 273.689L132.253 286.335C131.062 287.25 129.349 286.953 128.524 285.694C128.064 284.99 127.963 284.114 128.275 283.324C130.221 278.327 137.478 259.964 139.237 259.385C141.277 258.72 163.475 248.069 163.475 248.069L172.406 264.531Z" fill="#FF735D"/>
<g opacity="0.6">
<path d="M128.516 285.694L140.802 258.736L139.813 259.151C138.957 259.503 138.256 260.152 137.828 260.981C136.699 263.194 133.709 269.38 128.228 283.261C127.916 284.059 128.025 284.982 128.516 285.694Z" fill="white"/>
</g>
<g opacity="0.6">
<path d="M150.324 260.425C150.161 261.184 149.351 261.739 148.596 261.606C147.841 261.473 147.265 260.652 147.412 259.894C147.56 259.135 148.51 258.431 149.25 258.65C149.99 258.869 150.612 259.862 150.285 260.566" fill="white"/>
</g>
<path d="M136.52 276.09C136.512 276.246 137.952 276.27 139.183 277.396C140.452 278.483 140.654 279.914 140.81 279.883C140.872 279.883 140.934 279.508 140.787 278.929C140.646 278.35 140.242 277.592 139.549 276.982C138.856 276.372 138.054 276.067 137.47 275.996C136.878 275.918 136.52 276.027 136.52 276.09Z" fill="#1A2E35"/>
<path d="M134.083 279.062C134.028 279.218 135.095 279.656 135.944 280.728C136.816 281.776 137.018 282.917 137.182 282.894C137.33 282.91 137.361 281.58 136.372 280.376C135.399 279.156 134.091 278.913 134.083 279.062Z" fill="#1A2E35"/>
<path d="M139.253 271.312C139.19 271.468 140.833 272.133 142.297 273.681C143.784 275.206 144.376 276.888 144.539 276.825C144.68 276.809 144.29 274.933 142.702 273.29C141.129 271.64 139.276 271.171 139.253 271.312Z" fill="#1A2E35"/>
<path d="M146.19 267.933C146.073 268.05 147.148 269.13 147.903 270.788C148.682 272.438 148.806 273.955 148.97 273.947C149.11 273.963 149.234 272.328 148.409 270.553C147.592 268.77 146.268 267.808 146.19 267.933Z" fill="#1A2E35"/>
<path d="M153.049 265.063C152.948 265.188 154.256 266.173 154.91 267.988C155.603 269.787 155.245 271.398 155.409 271.421C155.471 271.437 155.658 271.061 155.751 270.389C155.845 269.724 155.79 268.762 155.432 267.792C155.066 266.823 154.482 266.056 153.984 265.618C153.47 265.172 153.081 265.008 153.049 265.063Z" fill="#1A2E35"/>
<path d="M156.195 267.409C156.211 267.44 156.545 267.362 157.09 267.073C157.635 266.783 158.398 266.275 159.115 265.407C159.442 264.977 159.893 264.476 159.932 263.694C159.956 263.303 159.691 262.842 159.271 262.693C158.858 262.545 158.437 262.615 158.064 262.764C156.592 263.405 155.681 265.274 156.156 267.042C156.662 268.801 158.251 269.927 159.8 270.06C160.189 270.068 160.641 269.998 160.96 269.654C161.287 269.31 161.248 268.77 161.053 268.457C160.664 267.8 160.08 267.526 159.621 267.245C158.64 266.705 157.752 266.486 157.145 266.4C156.53 266.306 156.187 266.346 156.187 266.377C156.164 266.486 157.581 266.494 159.418 267.589C159.854 267.878 160.392 268.199 160.641 268.676C160.765 268.911 160.758 269.161 160.594 269.333C160.446 269.497 160.127 269.575 159.816 269.552C158.539 269.427 157.09 268.387 156.686 266.893C156.273 265.407 157.067 263.765 158.251 263.241C158.539 263.116 158.858 263.077 159.091 263.155C159.325 263.241 159.465 263.452 159.465 263.702C159.473 264.234 159.107 264.742 158.796 265.165C157.503 266.862 156.133 267.315 156.195 267.409Z" fill="#1A2E35"/>
<path d="M162.159 270.451C162.821 270.107 189.449 259.213 189.449 259.213L162.977 246.043L147.023 254.341L162.159 270.451Z" fill="#000080"/>
<path d="M129.232 238.254C129.232 238.254 129.357 238.285 129.598 238.363C129.855 238.449 130.198 238.567 130.649 238.715C131.591 239.044 132.946 239.513 134.682 240.115C138.194 241.351 143.247 243.134 149.476 245.332C161.972 249.766 179.21 255.874 198.247 262.623C199.041 262.865 199.828 263.108 200.614 263.35L200.373 263.46C203.479 256.89 206.469 250.579 209.233 244.745L209.303 244.995C196.877 237.362 186.202 230.801 178.626 226.148C174.866 223.817 171.868 221.964 169.797 220.681C168.785 220.048 167.999 219.555 167.454 219.211C167.197 219.047 167.002 218.921 166.854 218.828C166.722 218.742 166.652 218.695 166.659 218.687C166.659 218.679 166.737 218.718 166.877 218.796C167.033 218.882 167.236 219 167.492 219.156C168.045 219.485 168.847 219.962 169.875 220.572C171.962 221.831 174.975 223.653 178.767 225.944C186.366 230.574 197.064 237.081 209.521 244.667L209.669 244.761L209.591 244.917C206.835 250.751 203.853 257.07 200.746 263.64L200.669 263.796L200.497 263.741C199.711 263.499 198.924 263.256 198.13 263.006C196.916 262.654 195.74 262.208 194.564 261.794C193.389 261.372 192.221 260.957 191.061 260.543C188.74 259.714 186.459 258.9 184.217 258.095C179.732 256.492 175.403 254.943 171.284 253.465C163.047 250.509 155.627 247.842 149.39 245.597C143.177 243.345 138.139 241.531 134.636 240.264C132.907 239.63 131.568 239.138 130.634 238.794C130.19 238.629 129.847 238.496 129.598 238.403C129.349 238.309 129.232 238.254 129.232 238.254Z" fill="#375A64"/>
<path d="M162.159 270.451C162.136 270.467 161.785 270.131 161.17 269.505C160.509 268.825 159.636 267.917 158.578 266.823C156.405 264.547 153.423 261.379 150.145 257.868C148.993 256.632 147.88 255.436 146.852 254.325L146.673 254.13L146.906 254.012C150.13 252.441 152.925 251.08 154.988 250.079C155.954 249.625 156.74 249.258 157.347 248.968C157.9 248.718 158.204 248.593 158.219 248.608C158.227 248.632 157.947 248.796 157.41 249.085C156.818 249.398 156.039 249.805 155.097 250.298C153.05 251.338 150.278 252.738 147.078 254.364L147.132 254.059C148.168 255.17 149.281 256.359 150.441 257.594C153.719 261.106 156.662 264.304 158.788 266.627C159.808 267.761 160.649 268.692 161.279 269.396C161.871 270.052 162.183 270.428 162.159 270.451Z" fill="#375A64"/>
<path d="M215.882 218.577C215.929 218.679 209.373 221.541 201.245 224.967C193.116 228.392 186.498 231.082 186.451 230.981C186.405 230.879 192.96 228.017 201.089 224.591C209.218 221.166 215.843 218.476 215.882 218.577Z" fill="#375A64"/>
<path d="M175.388 138.002C174.835 138.002 155.627 137.814 151.749 141.709C147.872 145.603 139.821 205.251 139.821 205.251C143.963 206.041 146.649 207.574 149.172 208.833L181.819 227.954L195.95 220.579C197.905 219.492 198.387 216.888 196.955 215.168L215.758 146.902C215.758 146.902 212.145 143.938 206.601 141.896C201.058 139.855 175.388 138.002 175.388 138.002Z" fill="#0869A6"/>
<path d="M209.397 144.336C209.397 144.336 215.174 145.619 217.385 149.201C222.57 157.592 238.501 187.397 241.179 194.537C244.013 202.099 240.969 206.401 238.921 209.591C236.718 213.025 224.61 213.017 219.121 207.12C216.77 204.594 203.658 192.644 203.658 192.644L209.397 144.336Z" fill="#0869A6"/>
<path d="M215.968 155.403C215.984 155.41 215.906 155.614 215.75 155.989C215.579 156.404 215.345 156.951 215.049 157.647C214.465 159.094 213.64 161.198 212.706 163.825C210.822 169.081 208.517 176.448 206.072 184.613C203.674 192.777 201.509 200.168 199.921 205.564C199.127 208.246 198.473 210.405 197.998 211.899C197.764 212.61 197.578 213.181 197.437 213.611C197.305 214.002 197.227 214.206 197.212 214.198C197.196 214.19 197.251 213.987 197.352 213.588C197.476 213.158 197.64 212.579 197.842 211.859C198.278 210.319 198.886 208.153 199.641 205.494C201.159 200.113 203.238 192.683 205.675 184.503C208.12 176.338 210.471 168.979 212.425 163.732C213.391 161.112 214.255 159.016 214.886 157.585C215.205 156.904 215.462 156.365 215.657 155.958C215.851 155.583 215.952 155.395 215.968 155.403Z" fill="#1A2E35"/>
<path d="M152.645 141.036C152.645 141.036 146.579 144.501 144.36 146.542C142.141 148.583 119.212 181.383 116.284 191.596C114.587 197.524 121.08 209.787 128.088 209.193C137.252 208.418 171.627 195.17 171.627 195.17L163.911 178.333L144.477 181.461L158.609 167.196L153.33 140.676" fill="#0869A6"/>
<path d="M234.203 191.041C234.195 191.049 234.078 190.979 233.852 190.83C233.595 190.65 233.284 190.431 232.903 190.173C232.038 189.547 230.87 188.711 229.453 187.686C226.557 185.567 222.563 182.618 218.179 179.341C217.175 178.591 216.194 177.856 215.244 177.144L215.524 177.105C212.721 180.773 210.238 183.963 208.423 186.224C206.617 188.484 205.465 189.805 205.395 189.735C205.901 189.078 206.71 188.022 208.221 186.059C210.012 183.705 212.441 180.499 215.213 176.855L215.33 176.698L215.485 176.815C216.435 177.519 217.416 178.254 218.421 179.005C222.812 182.282 226.775 185.262 229.625 187.444C231.011 188.507 232.147 189.391 232.996 190.04C233.362 190.329 233.658 190.572 233.899 190.76C234.102 190.932 234.211 191.025 234.203 191.041Z" fill="#1A2E35"/>
<path d="M179.779 172.35L164.363 179.287L170.513 192.715L180.153 186.317L179.779 172.35Z" fill="#C9655F"/>
<path d="M194.354 173.664L204.671 166.649C205.037 166.398 205.473 166.289 205.909 166.328L219.394 167.485C219.939 167.532 220.359 167.994 220.336 168.549C220.313 169.089 220.188 169.699 219.775 169.988C218.958 170.559 197.873 185.262 197.873 185.262L181.546 182.657L194.354 173.664Z" fill="#E1E1E1"/>
<path d="M179.779 172.35C179.779 172.35 185.346 168.205 186.654 167.978C187.962 167.751 193.848 167.775 193.848 167.775L198.792 170.614L195.732 172.702C193.607 172.233 192.992 171.396 192.992 171.396L189.574 171.623L179.779 172.35Z" fill="#C9655F"/>
<path d="M186.039 170.543L194.845 173.578L207.489 175.369C207.489 175.369 207.567 177.942 204.974 178.223C203.448 178.387 200.778 178.575 200.778 178.575C200.778 178.575 200.131 180.913 198.169 181.43C198.169 181.43 197.313 183.08 196.262 183.69C196.137 183.76 196.005 183.823 195.872 183.862C194.658 184.214 192.236 187.522 190.617 187.968C188.997 188.413 180.153 186.317 180.153 186.317L179.779 172.342L186.039 170.543Z" fill="#C9655F"/>
<path d="M188.631 177.762C188.639 177.723 189.324 177.91 190.446 178.137C191.567 178.364 193.132 178.606 194.868 178.724C196.612 178.833 198.193 178.802 199.329 178.716C200.466 178.638 201.175 178.536 201.175 178.575C201.175 178.591 201.003 178.63 200.692 178.692C200.373 178.755 199.913 178.825 199.345 178.888C198.2 179.013 196.604 179.083 194.852 178.966C193.101 178.849 191.528 178.583 190.407 178.309C189.846 178.176 189.402 178.051 189.091 177.949C188.795 177.84 188.631 177.777 188.631 177.762Z" fill="#A24640"/>
<path d="M190.337 181.383C190.36 181.391 190.376 181.719 190.243 182.251C190.173 182.509 190.049 182.837 189.768 183.111C189.496 183.385 189.052 183.518 188.624 183.486C188.195 183.463 187.806 183.322 187.487 183.158C187.168 182.994 186.895 182.83 186.669 182.697C186.218 182.431 185.906 182.321 185.914 182.29C185.922 182.259 186.257 182.313 186.747 182.548C187.238 182.759 187.861 183.205 188.632 183.252C189.013 183.275 189.371 183.166 189.613 182.947C189.854 182.728 189.986 182.446 190.072 182.204C190.243 181.711 190.298 181.375 190.337 181.383Z" fill="#A24640"/>
<path d="M196.83 182.251C196.838 182.282 196.472 182.384 195.872 182.493C195.273 182.603 194.432 182.72 193.498 182.783C192.563 182.845 191.722 182.845 191.107 182.814C190.5 182.783 190.119 182.736 190.119 182.704C190.119 182.634 191.629 182.673 193.474 182.548C195.327 182.423 196.814 182.18 196.83 182.251Z" fill="#A24640"/>
<path d="M190.158 185.919C190.196 185.966 189.597 186.419 188.709 186.552C187.822 186.693 187.113 186.443 187.137 186.388C187.152 186.317 187.837 186.45 188.67 186.31C189.511 186.192 190.126 185.856 190.158 185.919Z" fill="#A24640"/>
<path d="M193.334 185.754C193.342 185.817 192.922 185.934 192.384 186.005C191.855 186.075 191.411 186.083 191.403 186.012C191.396 185.95 191.816 185.833 192.353 185.762C192.883 185.7 193.326 185.692 193.334 185.754Z" fill="#A24640"/>
<path d="M194.845 173.586C194.814 173.679 192.96 173.077 190.726 172.201C189.605 171.763 188.6 171.349 187.884 171.02C187.168 170.7 186.739 170.457 186.755 170.426C186.771 170.395 187.222 170.582 187.954 170.864C188.764 171.177 189.737 171.56 190.812 171.975C191.886 172.397 192.859 172.78 193.669 173.093C194.401 173.39 194.845 173.554 194.845 173.586Z" fill="#A24640"/>
<path d="M207.754 176.776C207.754 176.776 206.773 176.44 207.824 174.892C208.875 173.351 211.818 175.22 211.818 175.22L215.579 177.472C215.579 177.472 216.427 179.435 215.376 179.959L214.606 180.913C214.606 180.913 216.069 182.407 215.478 183.713C214.886 185.027 213.43 184.832 213.43 184.832C213.43 184.832 213.601 187.475 212.745 188.492C211.888 189.508 211.11 189.602 211.11 189.602C211.11 189.602 210.393 191.792 207.863 192.441C205.34 193.09 204.017 193.137 203.331 192.066C202.646 191.002 202.218 189.641 202.218 189.641C202.218 189.641 196.807 186.787 196.69 185.34C196.573 183.893 196.822 183.76 196.822 183.76C196.822 183.76 196.386 182.556 196.931 181.672C197.476 180.788 199.625 181.555 199.625 181.555L206.524 183.181C206.524 183.181 201.003 180.569 200.342 179.717C199.68 178.864 200.388 177.824 202.607 178.082C204.826 178.348 211.53 179.607 211.53 179.607C211.53 179.607 211.195 178.935 210.751 178.747C210.3 178.559 208.914 177.746 208.914 177.746L207.754 176.776Z" fill="#C9655F"/>
<path d="M209.397 187.287C209.381 187.35 206.578 186.63 203.145 185.684C199.711 184.738 196.939 183.909 196.955 183.846C196.97 183.784 199.773 184.503 203.207 185.449C206.64 186.396 209.412 187.225 209.397 187.287Z" fill="#A24640"/>
<path d="M206.103 191.065C206.088 191.127 205.177 190.908 204.087 190.541C203.542 190.361 203.051 190.173 202.709 190.009C202.537 189.931 202.397 189.852 202.311 189.79C202.265 189.759 202.234 189.727 202.218 189.696C202.195 189.665 202.218 189.626 202.226 189.641C202.187 189.665 203.082 189.938 204.172 190.306C205.247 190.681 206.127 191.002 206.103 191.065Z" fill="#A24640"/>
<path d="M212.021 184.237C212.005 184.308 210.658 184.034 208.992 183.752C207.326 183.471 205.963 183.299 205.971 183.228C205.979 183.166 207.357 183.236 209.031 183.518C210.713 183.791 212.036 184.175 212.021 184.237Z" fill="#A24640"/>
<path d="M213.71 180.648C213.663 180.702 213.118 180.319 212.355 180.045C211.592 179.764 210.93 179.701 210.93 179.631C210.923 179.568 211.631 179.521 212.433 179.819C213.243 180.108 213.749 180.601 213.71 180.648Z" fill="#A24640"/>
<path d="M219.721 168.713C219.721 168.721 219.635 168.713 219.464 168.698C219.269 168.674 219.036 168.643 218.748 168.604C218.125 168.526 217.221 168.408 216.1 168.275C213.866 168.017 210.767 167.744 207.341 167.665C206.485 167.65 205.628 167.572 204.935 167.947C204.593 168.127 204.273 168.377 203.954 168.596C203.635 168.823 203.324 169.042 203.02 169.261C201.813 170.121 200.715 170.895 199.789 171.552C198.886 172.186 198.146 172.702 197.601 173.077C197.359 173.241 197.157 173.374 197.001 173.484C196.861 173.578 196.783 173.617 196.783 173.609C196.776 173.601 196.846 173.546 196.978 173.445C197.134 173.327 197.321 173.179 197.554 172.999C198.091 172.6 198.815 172.068 199.703 171.411C200.622 170.739 201.704 169.949 202.903 169.081C203.207 168.862 203.518 168.635 203.83 168.408C204.149 168.182 204.46 167.931 204.834 167.736C205.208 167.532 205.644 167.439 206.072 167.415C206.5 167.392 206.921 167.415 207.357 167.423C210.798 167.501 213.897 167.806 216.131 168.103C217.245 168.252 218.148 168.393 218.771 168.502C219.059 168.557 219.293 168.604 219.487 168.635C219.635 168.682 219.721 168.706 219.721 168.713Z" fill="#1A2E35"/>
<path d="M211.304 169.918C211.203 169.73 210.923 169.636 210.65 169.667L210.674 169.66C210.635 169.667 210.604 169.675 210.565 169.683C210.549 169.683 210.533 169.691 210.518 169.691C210.315 169.738 210.121 169.832 209.988 169.988C209.825 170.191 209.794 170.512 209.973 170.7C210.066 170.801 210.214 170.856 210.354 170.88C210.627 170.927 210.931 170.872 211.141 170.684C211.343 170.496 211.437 170.168 211.304 169.918Z" fill="white"/>
<path d="M180.643 94.707C180.145 94.4411 179.646 94.1752 179.148 93.9093C178.455 93.534 177.653 93.1507 176.867 93.3775C176.127 93.5887 175.613 94.3004 174.85 94.3786C173.963 94.4724 173.231 93.6747 172.343 93.7138C171.502 93.7529 170.841 94.5272 170 94.5193C169.369 94.5115 168.715 94.0736 168.178 94.3786C168.069 94.4411 167.975 94.5272 167.866 94.6054C167.275 95.012 166.449 94.7774 165.795 94.4881C165.141 94.1987 164.402 93.8702 163.724 94.1205C163.28 94.2847 162.977 94.6679 162.65 94.9886C162.323 95.3092 161.855 95.6064 161.396 95.5047C161.139 95.45 160.929 95.2858 160.68 95.2232C159.87 95.0199 159.2 95.8801 158.383 96.0991C157.62 96.3024 156.748 95.927 156.047 96.2712C155.494 96.5449 155.269 97.2174 155.471 97.7414C155.673 98.2654 156.226 98.6408 156.826 98.7659C157.425 98.8911 158.064 98.805 158.655 98.6252C159.138 98.4766 159.621 98.2732 160.127 98.2889C161.287 98.328 162.198 99.5323 163.335 99.2899C163.895 99.1648 164.285 98.7268 164.736 98.3984C165.375 97.9291 166.185 97.6632 166.994 97.6632C167.531 97.6632 168.092 97.7727 168.59 97.5694C169.198 97.3269 169.556 96.67 170.194 96.498C170.872 96.3103 171.572 96.7404 172.273 96.6778C172.74 96.6387 173.161 96.3806 173.628 96.3572C174.29 96.3181 174.889 96.7482 175.551 96.6935C176.221 96.6387 176.805 96.0756 177.474 96.1382C177.739 96.1617 177.98 96.279 178.229 96.3415C178.486 96.4041 178.79 96.4041 178.977 96.2242C179.125 96.0835 179.172 95.8567 179.351 95.755C179.483 95.6768 179.654 95.6924 179.802 95.7081C180.534 95.7863 181.266 95.8567 181.998 95.9349L180.643 94.707Z" fill="#1A2E35"/>
<path d="M183.002 94.6367C182.27 94.0892 181.281 93.5262 180.441 93.9798C180.137 94.144 179.919 94.4177 179.607 94.5663C178.907 94.9026 178.066 94.4646 177.318 94.668C176.688 94.84 176.275 95.4266 175.683 95.7238C174.741 96.193 173.371 95.9193 172.771 96.7482C172.452 97.2018 172.398 97.9292 171.837 98.0465C171.642 98.0856 171.44 98.0308 171.245 97.9761C170.583 97.8118 169.875 97.7884 169.198 97.9135C168.808 97.9839 168.419 98.109 168.131 98.3671C167.57 98.8754 167.555 99.7435 167.018 100.275C166.216 101.073 164.783 100.69 163.755 101.198C163.265 101.441 162.907 101.871 162.502 102.23C161.731 102.911 160.765 103.357 159.854 103.849C158.943 104.35 158.04 104.952 157.534 105.828C157.028 106.696 157.051 107.9 157.83 108.51C158.196 108.8 158.796 108.901 159.138 108.573C159.263 108.456 159.333 108.307 159.45 108.182C159.683 107.932 160.041 107.846 160.36 107.721C160.68 107.588 161.015 107.345 161.015 107.025C161.015 106.821 160.898 106.579 161.061 106.438C161.124 106.383 161.217 106.368 161.303 106.36C162.128 106.274 163.14 106.313 163.584 105.632C163.779 105.335 163.794 104.976 163.919 104.647C164.121 104.107 164.635 103.669 165.219 103.537C165.717 103.419 166.293 103.497 166.698 103.185C167.158 102.833 167.165 102.16 167.586 101.769C168.279 101.112 169.649 101.589 170.272 100.878C170.428 100.698 170.513 100.471 170.708 100.338C171.261 99.9703 171.946 100.729 172.6 100.604C173.161 100.494 173.379 99.8452 173.776 99.4464C174.274 98.9537 175.06 98.8676 175.699 98.5548C176.509 98.156 177.108 97.3817 177.972 97.1236C178.72 96.8968 179.639 97.0532 180.191 96.5214C180.402 96.3181 180.55 96.0209 180.83 95.9349C181.001 95.8802 181.172 95.9193 181.344 95.9427C182.185 96.06 183.08 95.8723 183.812 95.4344L183.002 94.6367Z" fill="#1A2E35"/>
<path d="M181.749 96.6231C179.872 96.2947 177.871 96.8968 176.47 98.2185C176.151 98.5157 175.855 98.852 175.473 99.0397C174.881 99.329 174.188 99.2039 173.534 99.2587C172.094 99.376 170.778 100.447 170.311 101.871C170.015 102.77 169.906 103.951 169.05 104.264C168.894 104.319 168.723 104.342 168.575 104.436C167.991 104.796 168.396 105.726 168.388 106.43C168.38 107.603 167.08 108.409 167.033 109.574C167.018 110.004 167.173 110.426 167.337 110.825C167.788 111.936 168.287 113.031 168.824 114.102C169.065 114.579 169.385 115.111 169.898 115.181C170.638 115.283 171.097 114.391 171.315 113.649C171.471 113.117 171.611 112.515 171.354 112.014C171.144 111.6 170.693 111.357 170.506 110.927C170.202 110.239 170.685 109.488 171.043 108.831C171.736 107.541 171.954 105.977 171.642 104.53C172.452 104.381 172.834 103.271 173.643 103.114C173.869 103.067 174.111 103.106 174.321 103.028C174.866 102.817 174.92 101.996 175.395 101.652C175.956 101.253 176.976 101.574 177.217 100.909C177.295 100.705 177.256 100.447 177.381 100.275C177.482 100.142 177.653 100.095 177.809 100.049C178.463 99.8843 179.117 99.7201 179.771 99.5558C180.145 99.462 180.534 99.3603 180.814 99.0944C181.313 98.6174 181.398 97.6867 182.029 97.4365L181.749 96.6231Z" fill="#1A2E35"/>
<path d="M183.827 92.705C183.75 91.5397 183.532 90.1555 182.512 89.6784C181.904 89.3969 181.18 89.5455 180.588 89.2405C179.452 88.6696 179.358 86.8161 178.229 86.2374C177.155 85.6821 175.637 86.558 174.757 85.6977C174.297 85.252 174.235 84.509 173.854 83.985C173.402 83.3672 172.592 83.1717 171.853 83.1248C171.113 83.0778 170.342 83.1248 169.657 82.8276C168.497 82.3114 167.742 80.8568 166.488 80.7629C165.429 80.6847 164.588 81.6232 163.926 82.4835C163.763 82.7024 163.584 82.9292 163.545 83.203C163.467 83.6878 163.833 84.1414 164.238 84.3839C165.079 84.8844 166.169 84.8062 166.963 85.3927C167.251 85.6117 167.492 85.9089 167.812 86.0809C168.263 86.3234 168.832 86.2686 169.268 86.5424C170.116 87.0663 170.101 88.4975 170.942 89.0371C171.744 89.5455 172.787 88.9355 173.698 89.1544C174.944 89.4516 175.629 91.1956 176.906 91.2425C177.474 91.266 177.996 90.9297 178.556 90.875C179.273 90.8046 180.005 91.2425 180.324 91.9229C180.526 92.3609 180.565 92.877 180.799 93.3072C181.102 93.8468 181.686 94.1518 182.27 94.2378C182.854 94.3238 183.446 94.23 184.03 94.1361L183.827 92.705Z" fill="#1A2E35"/>
<path d="M182.854 96.3103C182.044 94.8322 181.118 93.2524 179.522 92.5642C178.72 92.2201 177.801 92.1341 177.054 91.6961C176.415 91.3207 175.956 90.7185 175.356 90.2884C173.963 89.2952 172.047 89.3578 170.327 89.6315C168.614 89.9052 166.846 90.3353 165.157 89.9208C163.654 89.5455 162.338 88.521 160.781 88.4349C159.94 88.388 159.107 88.6226 158.297 88.8651C157.355 89.1388 156.421 89.4125 155.479 89.6862C155.175 89.7722 154.84 89.8896 154.685 90.1555C154.389 90.6638 154.973 91.2503 155.533 91.485C156.436 91.8682 157.472 91.9777 158.445 91.7978C159.216 91.657 159.979 91.3285 160.75 91.4459C161.287 91.5241 161.762 91.8134 162.284 91.9464C162.938 92.1184 163.623 92.048 164.292 91.9777C165.336 91.8682 166.371 91.7665 167.415 91.657C168.217 91.571 169.073 91.5006 169.797 91.8525C170.358 92.1262 170.802 92.6502 171.424 92.7206C172.117 92.7988 172.779 92.2748 173.472 92.3843C174.297 92.5095 174.71 93.4401 175.465 93.792C176.361 94.2065 177.521 93.7216 178.385 94.1987C178.969 94.5193 179.218 95.1763 179.584 95.7159C179.896 96.1617 180.3 96.5449 180.783 96.8264C181.39 97.1862 182.091 97.3739 182.776 97.5616L182.854 96.3103Z" fill="#1A2E35"/>
<path d="M184.505 89.741C184.131 89.2248 183.563 88.693 183.718 88.0752C183.796 87.7702 184.045 87.5199 184.1 87.2071C184.193 86.644 183.633 86.2061 183.415 85.6743C183.166 85.0408 183.415 84.2666 183.057 83.6878C182.691 83.0778 181.865 82.9918 181.18 82.8198C180.433 82.6321 179.67 82.1941 179.436 81.4512C179.28 80.9506 179.397 80.4032 179.343 79.8792C179.218 78.5106 177.887 77.447 176.524 77.3923C176.127 77.3766 175.714 77.4235 175.348 77.2593C174.687 76.9465 174.539 76.094 174.165 75.4684C173.659 74.616 172.584 74.1389 171.619 74.3422C171.152 74.4361 170.646 74.921 170.91 75.3198C171.019 75.4762 171.222 75.5466 171.37 75.6639C171.899 76.1175 171.518 77.0325 171.829 77.6503C172.156 78.3073 173.137 78.4168 173.441 79.0893C173.675 79.5977 173.402 80.2311 173.62 80.7473C173.885 81.3808 174.71 81.5137 175.395 81.5606C176.08 81.6076 176.898 81.7483 177.155 82.3896C177.264 82.6712 177.24 82.984 177.287 83.2812C177.373 83.8052 177.715 84.2822 178.19 84.5168C178.852 84.8531 179.779 84.7905 180.168 85.424C180.612 86.1357 179.981 87.1445 180.37 87.8875C180.659 88.4349 181.359 88.5757 181.873 88.9042C181.99 88.9824 182.107 89.0762 182.138 89.2092C182.177 89.3499 182.115 89.4985 182.044 89.6315C181.632 90.4761 181.11 91.4459 181.515 92.2905C181.679 92.6346 181.967 92.8927 182.231 93.1586C183.08 94.0267 183.703 95.1137 184.038 96.2868L184.762 93.1038C185.307 92.0402 185.198 90.6951 184.505 89.741Z" fill="#1A2E35"/>
<path d="M188.522 78.9642C188.803 78.057 188.437 76.9543 187.604 76.5007C186.771 76.055 185.556 76.4695 185.284 77.3766C184.972 78.4168 185.844 79.6368 185.291 80.5753C185.143 80.8333 184.894 81.0367 184.816 81.3182C184.622 82.0064 185.486 82.5852 185.486 83.3046C185.494 84.0945 184.497 84.5325 184.295 85.2989C184.053 86.1748 184.941 87.1055 184.622 87.9579C184.528 88.2003 184.357 88.388 184.209 88.5992C183.298 89.9443 183.757 91.7509 184.256 93.2994L186.319 92.9944C185.945 91.5554 187.954 90.1164 187.269 88.8025C186.942 88.1769 186.047 87.7233 186.249 87.0507C186.303 86.863 186.436 86.7222 186.568 86.5737C187.207 85.8698 187.845 85.1659 188.484 84.4621C188.764 84.1493 189.067 83.8052 189.106 83.3829C189.192 82.4678 188.048 81.8735 187.907 80.9663C187.806 80.2781 188.32 79.6446 188.522 78.9642Z" fill="#1A2E35"/>
<path d="M189.231 90.7107C189.036 90.0303 188.157 89.827 187.464 89.9287C185.548 90.2258 184.147 91.8291 182.924 93.3384C181.577 94.9964 180.223 96.6622 179.14 98.5078C178.899 98.9223 178.673 99.3525 178.611 99.8217C178.556 100.291 178.704 100.823 179.094 101.089C179.483 101.355 180.121 101.245 180.3 100.807L180.869 100.666C182.722 97.499 185.213 94.707 188.141 92.5095C188.74 92.0637 189.433 91.4302 189.231 90.7107Z" fill="#FF735D"/>
<path d="M178.696 120.147C178.237 116.339 177.793 112.515 177.988 108.682C178.183 104.85 179.055 100.995 181.04 97.718C181.344 97.2253 183.726 93.9641 184.279 94.1283C184.676 94.2456 182.987 97.3895 183.119 97.7805C184.411 101.527 184.162 105.671 183.096 109.488C182.029 113.304 180.557 116.652 178.696 120.147Z" fill="#1A2E35"/>
<path d="M195.662 145.126C196.207 142.475 196.643 140.379 196.666 140.387C196.666 140.387 205.924 141.247 208.275 132.324C209.412 128.015 211.032 118.951 212.402 110.731C213.873 101.894 208.338 93.4088 199.687 91.2269L198.831 91.0079C189.426 89.2092 182.652 96.2321 181.126 105.726L174.726 138.76L189.41 154.19L195.662 145.126Z" fill="#C9655F"/>
<path d="M196.667 140.387C196.667 140.387 190.967 139.3 185.93 134.013C185.93 134.013 187.129 141.24 196.223 142.679L196.667 140.387Z" fill="#A24640"/>
<path d="M207.855 117.825C207.707 118.505 207.014 118.943 206.305 118.802C205.597 118.662 205.138 117.997 205.286 117.316C205.433 116.636 206.126 116.198 206.835 116.339C207.536 116.48 207.995 117.144 207.855 117.825Z" fill="#1A2E35"/>
<path d="M209.568 113.961C209.365 114.086 208.587 113.125 207.216 112.788C205.854 112.428 204.67 112.882 204.561 112.671C204.507 112.577 204.741 112.319 205.262 112.108C205.776 111.897 206.586 111.772 207.434 111.991C208.283 112.21 208.922 112.71 209.256 113.132C209.591 113.57 209.661 113.907 209.568 113.961Z" fill="#1A2E35"/>
<path d="M195.429 115.432C195.281 116.112 194.588 116.55 193.879 116.409C193.171 116.268 192.711 115.604 192.859 114.923C193.007 114.243 193.7 113.805 194.409 113.946C195.117 114.086 195.576 114.751 195.429 115.432Z" fill="#1A2E35"/>
<path d="M196.012 111.13C195.81 111.255 195.024 110.293 193.661 109.957C192.298 109.597 191.115 110.051 191.006 109.84C190.952 109.746 191.185 109.488 191.707 109.277C192.221 109.066 193.03 108.941 193.879 109.159C194.728 109.378 195.366 109.879 195.701 110.301C196.044 110.739 196.114 111.076 196.012 111.13Z" fill="#1A2E35"/>
<path d="M198.278 122.939C198.294 122.861 199.181 122.924 200.606 123.096C200.964 123.151 201.315 123.158 201.432 122.939C201.579 122.705 201.525 122.29 201.455 121.837C201.338 120.906 201.221 119.928 201.089 118.904C200.606 114.736 200.349 111.341 200.521 111.326C200.692 111.31 201.214 114.673 201.696 118.841C201.805 119.866 201.914 120.843 202.016 121.782C202.047 122.212 202.163 122.728 201.852 123.205C201.689 123.448 201.385 123.573 201.151 123.573C200.91 123.588 200.715 123.542 200.536 123.502C199.127 123.229 198.27 123.018 198.278 122.939Z" fill="#1A2E35"/>
<path d="M194.012 122.869C194.237 122.916 193.864 124.402 194.876 125.786C195.88 127.17 197.507 127.405 197.468 127.616C197.468 127.718 197.04 127.819 196.371 127.663C195.709 127.522 194.806 127.069 194.191 126.224C193.576 125.379 193.459 124.425 193.56 123.8C193.653 123.166 193.91 122.838 194.012 122.869Z" fill="#1A2E35"/>
<path d="M197.336 105.531C197.11 105.867 195.787 105.351 194.128 105.14C192.478 104.897 191.061 105.038 190.936 104.655C190.882 104.467 191.193 104.178 191.808 103.943C192.415 103.716 193.334 103.576 194.323 103.716C195.312 103.857 196.16 104.233 196.682 104.616C197.212 104.999 197.437 105.367 197.336 105.531Z" fill="#1A2E35"/>
<path d="M210.144 109.246C209.825 109.496 208.961 108.933 207.832 108.636C206.71 108.291 205.683 108.315 205.543 107.932C205.488 107.752 205.714 107.47 206.212 107.283C206.703 107.095 207.45 107.024 208.221 107.243C208.992 107.462 209.599 107.916 209.91 108.338C210.237 108.768 210.284 109.12 210.144 109.246Z" fill="#1A2E35"/>
<path d="M180.191 112.53C180.059 112.428 174.523 109.167 173.192 115.33C171.853 121.5 178.292 121.571 178.346 121.399C178.385 121.227 180.191 112.53 180.191 112.53Z" fill="#C9655F"/>
<path d="M176.968 118.654C176.945 118.63 176.843 118.708 176.649 118.748C176.454 118.787 176.143 118.779 175.847 118.591C175.247 118.208 174.928 117.058 175.138 115.94C175.247 115.377 175.481 114.869 175.769 114.47C176.057 114.063 176.415 113.805 176.75 113.821C177.093 113.813 177.279 114.063 177.318 114.251C177.365 114.438 177.295 114.556 177.326 114.571C177.342 114.587 177.482 114.493 177.49 114.235C177.49 114.11 177.451 113.946 177.334 113.797C177.209 113.641 177.007 113.539 176.773 113.508C176.291 113.437 175.769 113.781 175.45 114.219C175.099 114.657 174.827 115.22 174.71 115.854C174.476 117.105 174.858 118.403 175.691 118.857C176.096 119.068 176.485 119.013 176.703 118.904C176.929 118.802 176.991 118.669 176.968 118.654Z" fill="#A24640"/>
<path d="M210.541 99.6575C211.654 99.3134 209.334 95.45 207.123 93.8233C203.775 91.3677 198.34 89.1466 194.736 89.4047C190.391 89.7175 186.552 91.0548 183.711 94.3708C180.869 97.6945 179.187 101.902 178.416 106.211C178.183 107.525 178.035 108.917 178.502 110.168C179.078 111.717 180.55 112.921 180.082 114.79C179.911 115.471 179.966 116.206 180.332 116.808C181.204 118.247 182.815 117.402 183.687 116.401C185.54 114.266 186.296 111.404 186.989 108.659C187.479 106.704 187.977 104.71 187.822 102.7C187.736 101.605 187.456 100.533 187.425 99.4385C187.401 98.3436 187.674 97.1627 188.499 96.4432C188.631 96.3259 188.842 96.1851 189.106 96.0366C191.17 94.8713 193.7 94.9182 195.724 96.1539C198.932 98.109 204.468 101.19 206.259 100.33C208.836 99.0944 209.599 98.1012 209.599 98.1012L210.541 99.6575Z" fill="#1A2E35"/>
<path d="M145.084 204.852C145.077 204.844 145.248 204.766 145.583 204.633C145.941 204.493 146.431 204.305 147.047 204.07C148.355 203.577 150.215 202.881 152.536 202.006C157.27 200.262 163.888 197.814 171.572 194.983L171.463 195.249C169.883 191.8 168.162 188.046 166.371 184.159C165.476 182.204 164.596 180.28 163.74 178.411L163.95 178.528C156.74 179.623 150.192 180.616 144.882 181.43L144.898 181.422C140.522 182.657 137.221 184.417 135.048 185.762C133.958 186.435 133.141 187.014 132.588 187.405C132.331 187.592 132.121 187.741 131.957 187.858C131.817 187.96 131.739 188.007 131.732 187.999C131.724 187.991 131.794 187.929 131.926 187.819C132.082 187.694 132.277 187.53 132.526 187.326C133.063 186.912 133.865 186.31 134.947 185.606C137.104 184.206 140.405 182.392 144.804 181.109H144.812H144.82C150.122 180.28 156.662 179.255 163.872 178.121L164.02 178.098L164.082 178.239C164.939 180.108 165.819 182.024 166.714 183.987C168.497 187.882 170.21 191.635 171.783 195.084L171.868 195.28L171.674 195.35C163.973 198.134 157.332 200.527 152.59 202.24C150.254 203.069 148.378 203.734 147.062 204.195C146.439 204.406 145.949 204.579 145.583 204.704C145.264 204.813 145.092 204.868 145.084 204.852Z" fill="#1A2E35"/>
<path d="M156.491 169.675C156.53 169.714 155.93 170.449 154.926 171.599C153.914 172.749 152.497 174.313 150.885 176.01C149.273 177.707 147.778 179.201 146.642 180.233C146.073 180.749 145.59 181.148 145.225 181.383C145.038 181.492 144.898 181.602 144.726 181.563C144.641 181.508 144.68 181.43 144.687 181.414C144.695 181.383 144.711 181.375 144.718 181.375C144.734 181.367 144.718 181.476 144.765 181.492C144.827 181.492 144.983 181.383 145.139 181.258C145.466 180.992 145.91 180.561 146.455 180.03C147.537 178.958 148.993 177.425 150.605 175.736C152.17 174.094 153.587 172.608 154.731 171.411C155.782 170.301 156.452 169.636 156.491 169.675Z" fill="#1A2E35"/>
<path d="M160.197 161.988C160.119 161.972 160.36 160.76 160.36 158.781C160.368 157.796 160.275 156.623 160.072 155.332C159.839 154.05 159.488 152.658 158.959 151.25C158.414 149.85 157.744 148.575 157.059 147.473C156.351 146.378 155.642 145.447 154.973 144.72C153.649 143.257 152.66 142.514 152.715 142.452C152.73 142.428 152.987 142.6 153.431 142.937C153.657 143.101 153.929 143.312 154.21 143.586C154.498 143.852 154.848 144.149 155.183 144.516C155.884 145.228 156.631 146.159 157.371 147.261C158.087 148.38 158.78 149.67 159.333 151.094C159.87 152.525 160.22 153.948 160.438 155.262C160.625 156.576 160.695 157.772 160.649 158.773C160.649 159.274 160.586 159.727 160.555 160.118C160.524 160.517 160.462 160.854 160.407 161.127C160.298 161.69 160.228 161.995 160.197 161.988Z" fill="#1A2E35"/>
<path d="M180.067 220.306C180.075 220.235 181.048 220.337 182.621 220.298C184.186 220.259 186.358 220.024 188.655 219.344C190.952 218.656 192.898 217.678 194.237 216.857C195.576 216.036 196.34 215.418 196.386 215.473C196.402 215.496 196.231 215.668 195.896 215.957C195.569 216.255 195.055 216.646 194.393 217.099C193.077 217.999 191.107 219.039 188.772 219.735C186.436 220.423 184.217 220.626 182.628 220.587C181.834 220.572 181.188 220.517 180.752 220.454C180.3 220.376 180.059 220.329 180.067 220.306Z" fill="#1A2E35"/>
<path d="M191.621 203.03C191.645 203.046 191.458 203.288 191.1 203.703C190.749 204.117 190.22 204.696 189.55 205.407C188.219 206.823 186.311 208.723 184.1 210.71C181.889 212.696 179.802 214.386 178.253 215.566C177.482 216.153 176.844 216.622 176.4 216.927C175.956 217.24 175.699 217.396 175.683 217.373C175.668 217.35 175.886 217.146 176.306 216.802C176.797 216.403 177.389 215.911 178.081 215.34C179.576 214.112 181.632 212.383 183.835 210.405C186.031 208.426 187.962 206.565 189.348 205.204C189.994 204.571 190.539 204.039 190.991 203.593C191.38 203.218 191.606 203.014 191.621 203.03Z" fill="#1A2E35"/>
<path d="M336.741 270.057C348.506 270.057 357.288 260.821 356.424 250.286L352.274 199.734C352.15 198.186 350.343 196.95 348.241 196.95H325.241C323.139 196.95 321.333 198.186 321.208 199.734L317.058 250.286C316.194 260.813 324.977 270.057 336.741 270.057Z" fill="#000080"/>
<path d="M317.751 241.832L321.208 199.734C321.333 198.186 323.139 196.95 325.241 196.95H340.829V229.515C340.829 236.319 335.34 241.832 328.566 241.832H317.751Z" fill="#0869A6"/>
<path d="M312.908 143.809C313.671 143.043 315.338 143.058 317.385 143.832C319.589 144.669 321.948 146.288 324.027 148.376C327.079 151.442 328.13 155.219 328.823 157.722C329.142 158.871 329.422 159.865 329.749 160.201L330.178 160.631C330.45 160.905 330.723 161.179 330.995 161.452C331.673 162.125 332.366 162.821 332.981 163.54C334.717 165.574 336.056 168.006 336.835 170.579C336.889 170.751 336.928 170.923 336.983 171.103V150.863C336.983 150.824 336.983 150.777 336.975 150.738C336.905 149.987 336.765 149.252 336.547 148.556C336.118 147.141 335.379 145.795 334.421 144.677C334.078 144.278 333.697 143.895 333.292 143.496C333.129 143.332 332.973 143.176 332.809 143.011L332.56 142.761C331.937 142.135 330.995 141.721 329.897 141.244C328.652 140.696 327.102 140.024 325.506 138.78C323.746 137.42 322.649 135.715 322.547 134.213C322.508 133.564 322.68 133.009 323.022 132.657C323.56 132.117 324.665 132.031 325.958 132.446C327.336 132.884 328.768 133.806 330.006 135.042C331.828 136.864 332.319 139.226 332.646 140.79C332.778 141.416 332.911 142.065 333.066 142.221L333.315 142.472C333.471 142.636 333.635 142.792 333.79 142.949C334.187 143.348 334.6 143.754 334.958 144.177C335.815 145.178 336.484 146.335 336.959 147.571V141.08C336.959 139.461 336.391 137.748 335.737 135.769C334.966 133.447 334.094 130.811 333.72 127.339C333.199 122.521 334.343 119.323 335.589 117.923C336.134 117.321 336.733 117 337.325 117C339.521 117 341.973 121.864 341.973 128.371C341.973 132.798 340.058 136.293 338.789 138.6C338.205 139.672 337.699 140.595 337.699 141.08V150.699C338.197 149.276 338.952 147.93 339.926 146.789C340.315 146.335 340.72 145.928 341.117 145.537C341.28 145.373 341.444 145.217 341.607 145.045L341.857 144.794C342.48 144.169 342.892 143.222 343.367 142.12C343.912 140.868 344.582 139.312 345.82 137.709C347.174 135.949 348.872 134.839 350.359 134.737C350.997 134.69 351.558 134.87 351.908 135.214C352.453 135.762 352.531 136.864 352.119 138.163C351.683 139.547 350.764 140.986 349.534 142.229C347.719 144.059 345.368 144.552 343.811 144.88C343.188 145.013 342.542 145.146 342.386 145.303L342.145 145.545C341.981 145.709 341.818 145.874 341.654 146.038C341.273 146.421 340.868 146.82 340.502 147.242C339.49 148.431 338.711 149.846 338.252 151.348C338.026 152.091 337.87 152.865 337.8 153.663C337.746 154.242 337.746 154.828 337.753 155.391C337.753 155.602 337.753 155.821 337.753 156.033H337.714V169.75C337.777 169.531 337.831 169.304 337.901 169.085C338.719 166.395 340.12 163.853 341.942 161.718C342.596 160.952 343.297 160.256 343.974 159.583C344.247 159.309 344.519 159.036 344.8 158.754L345.228 158.324C346.334 157.206 347.112 155.626 348.008 153.796C349.066 151.645 350.258 149.205 352.383 146.531C355.303 142.863 358.308 141.447 360.146 141.345C360.963 141.306 361.633 141.502 362.061 141.932C363.611 143.488 361.999 148.595 357.514 153.1C354.462 156.166 350.702 157.221 348.218 157.917C347.065 158.238 346.077 158.52 345.742 158.848L345.321 159.27C345.049 159.552 344.769 159.826 344.496 160.099C343.826 160.764 343.141 161.452 342.503 162.195C340.743 164.252 339.404 166.708 338.61 169.296C338.221 170.579 337.956 171.924 337.831 173.293C337.738 174.294 337.738 175.302 337.746 176.272C337.746 176.64 337.746 177 337.746 177.359H337.722V183.944C338.306 182.232 339.209 180.605 340.377 179.236C340.837 178.704 341.312 178.227 341.779 177.766C341.966 177.578 342.153 177.391 342.339 177.203L342.627 176.914C343.352 176.186 343.749 174.99 344.208 173.613C344.73 172.041 345.384 170.086 346.77 168.154C348.132 166.254 349.946 165.081 351.737 164.932C352.773 164.854 353.699 165.136 354.283 165.722C355.023 166.465 355.272 167.873 354.937 169.492C354.579 171.251 353.582 173.027 352.134 174.474C350.009 176.609 346.972 176.906 344.963 177.093C344.192 177.172 343.313 177.25 343.134 177.43L342.845 177.719C342.659 177.915 342.472 178.102 342.277 178.29C341.825 178.744 341.358 179.205 340.915 179.721C339.715 181.129 338.797 182.802 338.252 184.578C337.987 185.454 337.8 186.376 337.714 187.315C337.707 187.377 337.707 187.448 337.707 187.51C337.722 187.956 337.73 188.41 337.73 188.856C337.73 189.098 337.73 189.348 337.73 189.591H337.691V196.903H336.951V190.091H336.92C336.92 189.849 336.92 189.599 336.92 189.356C336.92 188.832 336.928 188.3 336.951 187.753V187.268C336.944 187.143 336.944 187.018 336.936 186.9C336.858 186.025 336.687 185.172 336.438 184.351C335.932 182.701 335.075 181.137 333.954 179.823C333.557 179.361 333.113 178.916 332.646 178.446C332.459 178.259 332.264 178.063 332.077 177.875L331.789 177.586C331.065 176.859 329.874 176.46 328.504 175.999C326.939 175.475 324.992 174.818 323.069 173.426C321.177 172.057 320.009 170.235 319.861 168.436C319.776 167.396 320.064 166.465 320.648 165.879C322.166 164.354 326.3 164.964 329.36 168.029C331.486 170.164 331.782 173.214 331.968 175.224C332.039 175.999 332.124 176.882 332.303 177.062L332.591 177.351C332.778 177.539 332.965 177.727 333.152 177.915C333.611 178.376 334.086 178.845 334.507 179.33C335.573 180.574 336.399 182.044 336.944 183.6V178.54H336.92C336.92 178.173 336.92 177.813 336.92 177.453C336.928 176.444 336.928 175.498 336.842 174.552C336.726 173.246 336.477 171.963 336.095 170.743C335.34 168.272 334.055 165.933 332.381 163.97C331.782 163.274 331.096 162.586 330.435 161.929C330.162 161.656 329.882 161.374 329.609 161.1L329.189 160.678C328.075 159.56 326.503 158.778 324.673 157.878C322.532 156.815 320.103 155.618 317.44 153.483C313.788 150.55 312.379 147.532 312.278 145.686C312.278 144.904 312.48 144.239 312.908 143.809Z" fill="#0869A6"/>
</svg>
